<svg xmlns="http://www.w3.org/2000/svg" viewBox="0 0 500 500"><g id="freepik--background-simple--inject-13"><path d="M86.38,303.36s124.35-61.78,149.69-70.49S427,308.11,427,308.11s16.63-3.17,30.89-35.64-7.92-93.46-59.4-113.26c-38.7-14.89-41.19-64.15-99-81.58s-108.51,4-125.93,23S145,140.2,108.56,159.21,43.61,201.07,43.61,236C43.61,279.6,86.38,303.36,86.38,303.36Z" style="fill:#92E3A9"></path><path d="M86.38,303.36s124.35-61.78,149.69-70.49S427,308.11,427,308.11s16.63-3.17,30.89-35.64-7.92-93.46-59.4-113.26c-38.7-14.89-41.19-64.15-99-81.58s-108.51,4-125.93,23S145,140.2,108.56,159.21,43.61,201.07,43.61,236C43.61,279.6,86.38,303.36,86.38,303.36Z" style="fill:#fff;opacity:0.7000000000000001"></path></g><g id="freepik--Asteroids--inject-13"><path d="M336.13,158.19l-5.42,5.71A14.21,14.21,0,0,0,327,176c.69,4.31,1.84,9.22,3.62,10.69,2.1,1.76,8.39,2,12.79,1.89a14.14,14.14,0,0,0,8-2.64l8.56-6.11a14.18,14.18,0,0,0,5.6-14.61l-.86-3.88a14.22,14.22,0,0,0-8.32-10h0a14.18,14.18,0,0,0-14.44,2l-4.43,3.59A14.71,14.71,0,0,0,336.13,158.19Z" style="fill:#263238"></path><path d="M147.33,226.21l6.56,4.36a14.2,14.2,0,0,0,12.5,1.59c4.13-1.42,8.77-3.4,9.92-5.4,1.37-2.38.5-8.61-.34-12.93a14.22,14.22,0,0,0-4-7.4l-7.5-7.38a14.17,14.17,0,0,0-15.35-3l-3.67,1.52a14.12,14.12,0,0,0-8.4,9.9h0a14.17,14.17,0,0,0,4.49,13.88l4.29,3.75A15.83,15.83,0,0,0,147.33,226.21Z" style="fill:#263238"></path><path d="M199.46,168.38s-6.52,0-6.52,3.43.34,6.18,2.4,6.52a7.76,7.76,0,0,0,1.82,0,7,7,0,0,0,6.41-6.65,1.77,1.77,0,0,0,0-.22C203.58,170.09,201.86,167.69,199.46,168.38Z" style="fill:#263238"></path><path d="M334.63,215.82s-10.64,0-10.64,5.6.56,10.08,3.92,10.64a12.7,12.7,0,0,0,3,0,11.43,11.43,0,0,0,10.46-10.84c0-.13,0-.26,0-.37C341.36,218.62,338.55,214.7,334.63,215.82Z" style="fill:#263238"></path><path d="M309.25,101.42s2.75,10.28,8.16,8.84,9.6-3.15,9.27-6.54a13,13,0,0,0-.76-2.87,11.41,11.41,0,0,0-13.17-7.31l-.36.09C310.22,94.21,307.16,97.92,309.25,101.42Z" style="fill:#263238"></path><path d="M155.92,136.09s2.75,10.28,8.16,8.83,9.59-3.14,9.27-6.53a13.62,13.62,0,0,0-.76-2.88,11.43,11.43,0,0,0-13.18-7.3l-.36.08C156.89,128.87,153.82,132.59,155.92,136.09Z" style="fill:#263238"></path><path d="M111,170.62s-6.52,0-6.52,3.43.34,6.18,2.4,6.52a7.76,7.76,0,0,0,1.82,0,7,7,0,0,0,6.41-6.65,1.77,1.77,0,0,0,0-.22C115.09,172.33,113.37,169.93,111,170.62Z" style="fill:#263238"></path><path d="M220.74,102.85s-6.52,0-6.52,3.43.34,6.18,2.4,6.52a7.84,7.84,0,0,0,1.83,0,7,7,0,0,0,6.41-6.64v-.23C224.86,104.56,223.14,102.16,220.74,102.85Z" style="fill:#263238"></path><path d="M360.76,244.55s-6.52,0-6.52,3.43.34,6.18,2.4,6.52a7.32,7.32,0,0,0,1.82,0,7,7,0,0,0,6.41-6.64,1.85,1.85,0,0,0,0-.23C364.88,246.26,363.16,243.86,360.76,244.55Z" style="fill:#263238"></path><path d="M426.47,253.51s1.56,6.33,4.9,5.51,5.91-1.82,5.75-3.9a8.13,8.13,0,0,0-.43-1.77,7,7,0,0,0-8-4.63l-.22.05C427.15,249.1,425.23,251.34,426.47,253.51Z" style="fill:#263238"></path><path d="M59.14,246.18s1.56,6.33,4.89,5.5,5.92-1.81,5.76-3.89a7.87,7.87,0,0,0-.43-1.77,7,7,0,0,0-8-4.63l-.22.05C59.81,241.77,57.89,244,59.14,246.18Z" style="fill:#263238"></path><path d="M73.73,253.4s.72,2.92,2.26,2.54,2.73-.84,2.65-1.8a3.7,3.7,0,0,0-.2-.82,3.23,3.23,0,0,0-3.68-2.13l-.1,0A1.58,1.58,0,0,0,73.73,253.4Z" style="fill:#263238"></path><path d="M313.41,243.79s.72,2.92,2.26,2.54,2.72-.83,2.65-1.79a3.57,3.57,0,0,0-.2-.82,3.22,3.22,0,0,0-3.68-2.13l-.1,0A1.57,1.57,0,0,0,313.41,243.79Z" style="fill:#263238"></path><path d="M421,221s.72,2.92,2.26,2.54,2.72-.84,2.65-1.8a3.51,3.51,0,0,0-.2-.81,3.23,3.23,0,0,0-3.68-2.14l-.1,0A1.58,1.58,0,0,0,421,221Z" style="fill:#263238"></path><path d="M345.09,139.78s3,5.81,6,4.24,5.34-3.12,4.71-5.11a8.37,8.37,0,0,0-.83-1.63,7,7,0,0,0-8.84-2.67l-.2.1C344.74,135.33,343.38,138,345.09,139.78Z" style="fill:#263238"></path><path d="M285.75,87.11s3,5.81,6,4.24,5.35-3.12,4.71-5.11a7.69,7.69,0,0,0-.82-1.62,7,7,0,0,0-8.84-2.68l-.2.1C285.4,82.67,284.05,85.29,285.75,87.11Z" style="fill:#263238"></path><path d="M178.42,102.45s3,5.8,6,4.24,5.34-3.12,4.71-5.11a7.84,7.84,0,0,0-.83-1.63,7,7,0,0,0-8.83-2.68l-.21.1C178.07,98,176.71,100.62,178.42,102.45Z" style="fill:#263238"></path><path d="M247.55,118.17s2.44-.33,2.27-1.61-.44-2.29-1.22-2.32a3.34,3.34,0,0,0-.69.09,2.64,2.64,0,0,0-2.06,2.8s0,.06,0,.09A1.29,1.29,0,0,0,247.55,118.17Z" style="fill:#263238"></path><path d="M315.25,171.93s-5.52-9.09-10.31-6.19-8.32,5.71-7.06,8.87a12.74,12.74,0,0,0,1.53,2.55,11.42,11.42,0,0,0,14.69,3.32l.33-.18C316.34,179.13,318.24,174.71,315.25,171.93Z" style="fill:#263238"></path><path d="M105.92,232s-5.52-9.1-10.31-6.19-8.33,5.7-7.06,8.87a12.82,12.82,0,0,0,1.53,2.55,11.42,11.42,0,0,0,14.69,3.32l.33-.19C107,239.22,108.91,234.79,105.92,232Z" style="fill:#263238"></path><path d="M169.77,168.73s-5.52-9.09-10.31-6.19-8.33,5.71-7.06,8.87a12.55,12.55,0,0,0,1.53,2.55,11.42,11.42,0,0,0,14.69,3.32l.32-.19C170.86,175.93,172.76,171.5,169.77,168.73Z" style="fill:#263238"></path><path d="M394.35,179.37s-5.51-9.09-10.3-6.19-8.33,5.71-7.07,8.87a12.85,12.85,0,0,0,1.54,2.55,11.42,11.42,0,0,0,14.69,3.32l.32-.18C395.45,186.57,397.35,182.15,394.35,179.37Z" style="fill:#263238"></path><path d="M293.44,96.3s-10.55,1.38-9.83,6.93,1.86,9.93,5.27,10a12.71,12.71,0,0,0,2.95-.38,11.42,11.42,0,0,0,9-12.1c0-.13,0-.26,0-.37C300.47,98.21,297.18,94.69,293.44,96.3Z" style="fill:#263238"></path><path d="M448.12,224.74s-5.52-9.1-10.31-6.19-8.33,5.7-7.06,8.87a12.51,12.51,0,0,0,1.53,2.54A11.42,11.42,0,0,0,447,233.29l.33-.19C449.21,231.94,451.11,227.51,448.12,224.74Z" style="fill:#263238"></path></g><g id="freepik--speed-lines--inject-13"><line x1="367.67" y1="265" x2="403.67" y2="287.67" style="fill:none;stroke:#fff;stroke-linecap:round;stroke-linejoin:round"></line><line x1="351.86" y1="240.31" x2="403.68" y2="262.48" style="fill:none;stroke:#fff;stroke-linecap:round;stroke-linejoin:round"></line><line x1="297.22" y1="216.93" x2="339.42" y2="234.99" style="fill:none;stroke:#fff;stroke-linecap:round;stroke-linejoin:round"></line><line x1="74.98" y1="249.69" x2="70.06" y2="251.66" style="fill:none;stroke:#fff;stroke-linecap:round;stroke-linejoin:round"></line><line x1="136.67" y1="224.9" x2="81.98" y2="246.88" style="fill:none;stroke:#fff;stroke-linecap:round;stroke-linejoin:round"></line><line x1="252.25" y1="81.44" x2="252.81" y2="124.7" style="fill:none;stroke:#fff;stroke-linecap:round;stroke-linejoin:round"></line><line x1="290.53" y1="92.2" x2="269.89" y2="125.84" style="fill:none;stroke:#fff;stroke-linecap:round;stroke-linejoin:round"></line><line x1="293.24" y1="115.59" x2="272.74" y2="136.09" style="fill:none;stroke:#fff;stroke-linecap:round;stroke-linejoin:round"></line><line x1="320.95" y1="142.97" x2="281.85" y2="170.25" style="fill:none;stroke:#fff;stroke-linecap:round;stroke-linejoin:round"></line><line x1="330.81" y1="136.09" x2="326.02" y2="139.44" style="fill:none;stroke:#fff;stroke-linecap:round;stroke-linejoin:round"></line><line x1="327.21" y1="194.06" x2="303.23" y2="190.06" style="fill:none;stroke:#fff;stroke-linecap:round;stroke-linejoin:round"></line><line x1="363.97" y1="200.19" x2="334.07" y2="195.2" style="fill:none;stroke:#fff;stroke-linecap:round;stroke-linejoin:round"></line><line x1="381.81" y1="203.17" x2="375.05" y2="202.04" style="fill:none;stroke:#fff;stroke-linecap:round;stroke-linejoin:round"></line><line x1="288.81" y1="195.9" x2="316.81" y2="205.47" style="fill:none;stroke:#fff;stroke-linecap:round;stroke-linejoin:round"></line><line x1="201.97" y1="198.92" x2="194.18" y2="201.56" style="fill:none;stroke:#fff;stroke-linecap:round;stroke-linejoin:round"></line><line x1="227.76" y1="190.17" x2="208.32" y2="196.77" style="fill:none;stroke:#fff;stroke-linecap:round;stroke-linejoin:round"></line><line x1="151.78" y1="192.11" x2="144.08" y2="193.02" style="fill:none;stroke:#fff;stroke-linecap:round;stroke-linejoin:round"></line><line x1="220.93" y1="183.91" x2="158.87" y2="191.27" style="fill:none;stroke:#fff;stroke-linecap:round;stroke-linejoin:round"></line><line x1="174.78" y1="143.63" x2="211.82" y2="160" style="fill:none;stroke:#fff;stroke-linecap:round;stroke-linejoin:round"></line><line x1="162.86" y1="138.37" x2="167.74" y2="140.52" style="fill:none;stroke:#fff;stroke-linecap:round;stroke-linejoin:round"></line><line x1="190.76" y1="160" x2="219.22" y2="168.54" style="fill:none;stroke:#fff;stroke-linecap:round;stroke-linejoin:round"></line><line x1="188.48" y1="105.35" x2="205.56" y2="126.98" style="fill:none;stroke:#fff;stroke-linecap:round;stroke-linejoin:round"></line><line x1="209.55" y1="132.1" x2="215.81" y2="138.94" style="fill:none;stroke:#fff;stroke-linecap:round;stroke-linejoin:round"></line><line x1="148.16" y1="258.83" x2="142.37" y2="262.48" style="fill:none;stroke:#fff;stroke-linecap:round;stroke-linejoin:round"></line><line x1="194.74" y1="229.46" x2="154.5" y2="254.83" style="fill:none;stroke:#fff;stroke-linecap:round;stroke-linejoin:round"></line><line x1="203.28" y1="213.52" x2="187.91" y2="221.49" style="fill:none;stroke:#fff;stroke-linecap:round;stroke-linejoin:round"></line><line x1="144.64" y1="163.42" x2="117.89" y2="159.43" style="fill:none;stroke:#fff;stroke-linecap:round;stroke-linejoin:round"></line><line x1="363.18" y1="221" x2="396.51" y2="231" style="fill:none;stroke:#fff;stroke-linecap:round;stroke-linejoin:round"></line><line x1="360.33" y1="161.67" x2="383" y2="154.33" style="fill:none;stroke:#fff;stroke-linecap:round;stroke-linejoin:round"></line></g><g id="freepik--Background--inject-13"><path d="M303.35,147.5H196.07a2.49,2.49,0,0,1-1.7-.67l-42.15-39.18a2.5,2.5,0,1,1,3.41-3.66l41.42,38.51H302.37L343.8,104a2.5,2.5,0,0,1,3.4,3.66l-42.14,39.18A2.52,2.52,0,0,1,303.35,147.5Z" style="fill:#fff;stroke:#263238;stroke-linecap:round;stroke-linejoin:round"></path><path d="M127.41,253.45l-7.9-33.94a15,15,0,0,0-9.57-10.85L54.3,189.14a2.47,2.47,0,0,0-3.17,1.62A2.61,2.61,0,0,0,52.7,194l55.64,19.53a9.88,9.88,0,0,1,6.31,7.15l7.9,33.94a10.47,10.47,0,0,1-.67,6.69l-14.41,31.21,7-3.24,11.88-25.73A15.79,15.79,0,0,0,127.41,253.45Z" style="fill:#fff;stroke:#263238;stroke-linecap:round;stroke-linejoin:round"></path><path d="M453.51,190.76a2.48,2.48,0,0,0-3.17-1.62L394.7,208.66a15,15,0,0,0-9.57,10.85l-7.91,33.94a15.79,15.79,0,0,0,1,10.14l12.6,27.28,6.78,3.13a2.66,2.66,0,0,0-.24-.95l-14.63-31.7a10.4,10.4,0,0,1-.68-6.69L390,220.72a9.88,9.88,0,0,1,6.31-7.15L451.94,194A2.61,2.61,0,0,0,453.51,190.76Z" style="fill:#fff;stroke:#263238;stroke-linecap:round;stroke-linejoin:round"></path><polygon points="305.52 297.31 193.9 297.31 210.65 252.51 288.78 252.51 305.52 297.31" style="fill:#fff;stroke:#263238;stroke-linecap:round;stroke-linejoin:round"></polygon><polygon points="294.33 292.82 205.09 292.82 218.48 257 280.95 257 294.33 292.82" style="fill:#263238;stroke:#263238;stroke-linecap:round;stroke-linejoin:round"></polygon><polygon points="288.78 252.51 316.82 279.57 316.82 308.02 305.52 297.31 288.78 252.51" style="fill:#263238;stroke:#263238;stroke-linecap:round;stroke-linejoin:round"></polygon><polygon points="210.63 252.51 182.59 279.57 182.59 308.02 193.89 297.31 210.63 252.51" style="fill:#263238;stroke:#263238;stroke-linecap:round;stroke-linejoin:round"></polygon><polygon points="182.59 279.57 133.64 288.67 133.64 317.33 182.59 308.02 182.59 279.57" style="fill:#fff;stroke:#263238;stroke-linecap:round;stroke-linejoin:round"></polygon><polygon points="316.85 279.57 365.8 288.67 365.8 317.33 316.85 308.02 316.85 279.57" style="fill:#fff;stroke:#263238;stroke-linecap:round;stroke-linejoin:round"></polygon><path d="M192.52,254.63s-67.41,28.08-126.39,59" style="fill:none;stroke:#263238;stroke-linecap:round;stroke-linejoin:round"></path><path d="M310.18,254.63s67.41,28.08,126.39,59" style="fill:none;stroke:#263238;stroke-linecap:round;stroke-linejoin:round"></path><circle cx="140.84" cy="294.88" r="4.93" style="fill:#92E3A9"></circle><circle cx="157.88" cy="292.34" r="4.93" style="fill:#92E3A9"></circle><polygon points="139.3 312.74 137.06 313.16 137.06 308.21 139.3 307.79 139.3 312.74" style="fill:#92E3A9"></polygon><polygon points="142.34 312.16 140.1 312.59 140.1 304.13 142.34 303.71 142.34 312.16" style="fill:#92E3A9"></polygon><polygon points="145.37 311.59 143.13 312.01 143.13 308.84 145.37 308.42 145.37 311.59" style="fill:#92E3A9"></polygon><polygon points="148.41 311.01 146.17 311.44 146.17 304.7 148.41 304.28 148.41 311.01" style="fill:#92E3A9"></polygon><polygon points="151.44 310.44 149.21 310.86 149.21 305.91 151.44 305.49 151.44 310.44" style="fill:#92E3A9"></polygon><polygon points="154.48 309.86 152.24 310.29 152.24 308.2 154.48 307.78 154.48 309.86" style="fill:#92E3A9"></polygon><polygon points="157.51 309.29 155.28 309.71 155.28 306.94 157.51 306.52 157.51 309.29" style="fill:#92E3A9"></polygon><polygon points="160.54 308.71 158.31 309.14 158.31 304.18 160.54 303.76 160.54 308.71" style="fill:#92E3A9"></polygon><polygon points="163.58 308.14 161.34 308.56 161.34 300.11 163.58 299.68 163.58 308.14" style="fill:#92E3A9"></polygon><polygon points="166.61 307.56 164.38 307.99 164.38 304.81 166.61 304.39 166.61 307.56" style="fill:#92E3A9"></polygon><polygon points="169.65 306.99 167.41 307.41 167.41 300.68 169.65 300.26 169.65 306.99" style="fill:#92E3A9"></polygon><polygon points="172.69 306.41 170.45 306.84 170.45 301.88 172.69 301.46 172.69 306.41" style="fill:#92E3A9"></polygon><polygon points="175.72 305.84 173.48 306.26 173.48 304.18 175.72 303.76 175.72 305.84" style="fill:#92E3A9"></polygon><polygon points="178.75 305.26 176.52 305.69 176.52 302.92 178.75 302.49 178.75 305.26" style="fill:#92E3A9"></polygon><path d="M352.8,294.88a4.93,4.93,0,1,0,4.93-4.93A4.93,4.93,0,0,0,352.8,294.88Z" style="fill:#92E3A9"></path><circle cx="340.69" cy="292.34" r="4.93" style="fill:#92E3A9"></circle><polygon points="359.26 312.74 361.5 313.16 361.5 308.21 359.26 307.79 359.26 312.74" style="fill:#92E3A9"></polygon><polygon points="356.23 312.16 358.47 312.59 358.47 304.13 356.23 303.71 356.23 312.16" style="fill:#92E3A9"></polygon><polygon points="353.19 311.59 355.43 312.01 355.43 308.84 353.19 308.42 353.19 311.59" style="fill:#92E3A9"></polygon><polygon points="350.16 311.01 352.39 311.44 352.39 304.7 350.16 304.28 350.16 311.01" style="fill:#92E3A9"></polygon><polygon points="347.12 310.44 349.36 310.86 349.36 305.91 347.12 305.49 347.12 310.44" style="fill:#92E3A9"></polygon><polygon points="344.09 309.86 346.32 310.29 346.32 308.2 344.09 307.78 344.09 309.86" style="fill:#92E3A9"></polygon><polygon points="341.05 309.29 343.29 309.71 343.29 306.94 341.05 306.52 341.05 309.29" style="fill:#92E3A9"></polygon><polygon points="338.02 308.71 340.26 309.14 340.26 304.18 338.02 303.76 338.02 308.71" style="fill:#92E3A9"></polygon><polygon points="334.99 308.14 337.22 308.56 337.22 300.11 334.99 299.68 334.99 308.14" style="fill:#92E3A9"></polygon><polygon points="331.95 307.56 334.19 307.99 334.19 304.81 331.95 304.39 331.95 307.56" style="fill:#92E3A9"></polygon><polygon points="328.92 306.99 331.15 307.41 331.15 300.68 328.92 300.26 328.92 306.99" style="fill:#92E3A9"></polygon><polygon points="325.88 306.41 328.12 306.84 328.12 301.88 325.88 301.46 325.88 306.41" style="fill:#92E3A9"></polygon><polygon points="322.85 305.84 325.08 306.26 325.08 304.18 322.85 303.76 322.85 305.84" style="fill:#92E3A9"></polygon><polygon points="319.81 305.26 322.05 305.69 322.05 302.92 319.81 302.49 319.81 305.26" style="fill:#92E3A9"></polygon><line x1="365.8" y1="317.33" x2="378.49" y2="373" style="fill:none;stroke:#263238;stroke-linecap:round;stroke-linejoin:round"></line><line x1="133.47" y1="317.33" x2="120.78" y2="373" style="fill:none;stroke:#263238;stroke-linecap:round;stroke-linejoin:round"></line></g><g id="freepik--Shadow--inject-13"><ellipse cx="239.5" cy="423.5" rx="51.38" ry="25.5" style="fill:#92E3A9"></ellipse><ellipse cx="239.5" cy="423.5" rx="51.38" ry="25.5" style="fill:#fff;opacity:0.5"></ellipse></g><g id="freepik--Character--inject-13"><path d="M218,410.25s-5,5.52-7.25,8.28-7.07,5.35-4.31,8.45,8.45,1.73,12.07-1.38,5-6.55,6-6.72,3.45,0,3.8-2.76.51-5.18.51-5.18S222.66,413,218,410.25Z" style="fill:#92E3A9;stroke:#263238;stroke-linecap:round;stroke-linejoin:round"></path><path d="M258.89,415.08s-2.25,8.11-4.32,11.9-2.24,7.42,1.73,7.42,8.28-2.41,10.87-8.45a22,22,0,0,0,1-12.42S266.48,417.67,258.89,415.08Z" style="fill:#92E3A9;stroke:#263238;stroke-linecap:round;stroke-linejoin:round"></path><path d="M224,273.67s7,5,20,5,29.67-2,29.67-2,2,18.66,0,36.33-3,36.33-1,43.67S271,385,271,393s-.67,17-1,19.67-5.67,4-8.67,3.33l-3-.67s-1-33-3.33-43.66-4.67-40.34-6.33-46.67-4-16-4-16l-4-2s-4,29-4,39,1.66,25.67-.67,36-5.67,28-5.67,28-4,1.33-6.66.67a36,36,0,0,1-6-2.34s2.66-22,3-31-2.34-49-2-63.33S224,273.67,224,273.67Z" style="fill:#263238;stroke:#263238;stroke-linecap:round;stroke-linejoin:round"></path><path d="M247.88,195.75s-4.38,1-6.75,4.25-5.75,9.87-6.13,14.25-1.37,24.25-2.87,31.62-5.5,33.63-5.5,33.63,10.12,3.87,19.62,3.87,10.63-.87,10.63-.87-3.13-41.5-2.25-52.88,4.5-26.37,3.25-29.75S251.25,194.62,247.88,195.75Z" style="fill:#fff;stroke:#263238;stroke-linecap:round;stroke-linejoin:round"></path><path d="M243.38,200.62a58.48,58.48,0,0,0-4.5,11.75c-2,7.25-2.75,26-5,39.88s-9.38,51.12-9.38,51.12l-8.75-7.5s5.38-33.12,6.75-45.87,1.88-18,1.88-18-4.75,10-7.38,15.5-8.37,13.37-11.75,15.37-5.37-2.37-4.37-8.12,13.87-31,16.12-36.63,5.11-13,6.63-14.12c3.56-2.77,14.5-4.25,15.75-4.75S245.13,195.12,243.38,200.62Z" style="fill:#92E3A9;stroke:#263238;stroke-linecap:round;stroke-linejoin:round"></path><polyline points="224.05 218.53 224.38 232 221.16 225.35" style="fill:none;stroke:#263238;stroke-linecap:round;stroke-linejoin:round"></polyline><path d="M204.52,245.32s4.95.71,6.55,5a9.62,9.62,0,0,1-1.42,9.74c-1.77,2.47-2.65,5.48-8.31,5.13s-5.14-5.31-4.43-8.67S198.5,248,204.52,245.32Z" style="fill:#fff;stroke:#263238;stroke-linecap:round;stroke-linejoin:round"></path><path d="M255.88,200.25s-4,14.62-4.88,25.12-1.5,27.25-1.25,38.75,1.5,41.38,1.5,41.38,10.38-3.25,17.88-6.5a75.92,75.92,0,0,0,14.37-8.63s-4.25-24.37-5.75-34.25-2.62-20.87-2.62-20.87,2.37-16.25,3-22.25,1.12-9.25-.63-9.88-13.12-3.5-15.87-4.5-5.5-2.25-5.5-2.25A26.21,26.21,0,0,1,255.88,200.25Z" style="fill:#92E3A9;stroke:#263238;stroke-linecap:round;stroke-linejoin:round"></path><path d="M244.38,194a6.32,6.32,0,0,0-4.25,2.75c-2,2.62-5.5,9-6.63,10.75s-1.37,2.25-1.37,2.25l7.25-.5s2.5-6.63,5.25-9.25,6.87-2.13,8.25-.63a3,3,0,0,1,2.12,2.75,53.69,53.69,0,0,1-.87,6.75l7.87,1.25A43.4,43.4,0,0,0,260.25,199C258.63,194.25,251.5,192.12,244.38,194Z" style="fill:#fff;stroke:#263238;stroke-linecap:round;stroke-linejoin:round"></path><path d="M243.13,190.37s.37,7.38-.5,11.5,3.25,7.5,6.5,6.13,6.5-4.25,6.75-7.75,1.25-16,1.25-16-7.75,4.75-10.38,5.37a5.42,5.42,0,0,1-4-.25Z" style="fill:#fff;stroke:#263238;stroke-linecap:round;stroke-linejoin:round"></path><path d="M240.31,158.93s-1.9,11.34-2.24,18.18,2.69,15.26,8.53,15.26,13.68-10.77,13.68-10.77,7.18-8.42,8.42-15-8.3-13.24-14.36-14.47S243.46,151.53,240.31,158.93Z" style="fill:#fff;stroke:#263238;stroke-linecap:round;stroke-linejoin:round"></path><path d="M262.81,167.06a3.37,3.37,0,0,1-.84,3.4c-1.05,1.11-2.59,3-2.13,4.41.22.67,5.4.73,8.41-2,3.93-3.59,2.25-15.27-5.16-19.53s-14.66-2.32-15.33.6,14.21,11.52,14.88,12.76A2.59,2.59,0,0,1,262.81,167.06Z" style="fill:#263238;stroke:#263238;stroke-linecap:round;stroke-linejoin:round"></path><polygon points="264.43 158.96 269.24 172.25 267.44 173.51 261.69 171.35 264.43 158.96" style="fill:#fff;stroke:#263238;stroke-linecap:round;stroke-linejoin:round"></polygon><path d="M265.7,163.71,264.43,159a3.73,3.73,0,0,1-1.12,2.22c-1.9,1.68-6.28,1.46-12.34-.79s-8.08,1.24-13.24,1.12c-3.23-.07-4.83-1.45-5.58-2.48l-.7,0,1.46,7.18H233a4.15,4.15,0,0,0,2.17,2.69c3.59,1.91,6.06.56,9.32,0s7.06,1.23,7.06,1.23c4.72,2.47,7.73,2.33,11.11.56C264.58,169.7,267,166.74,265.7,163.71Z" style="fill:#fff;stroke:#263238;stroke-linecap:round;stroke-linejoin:round"></path><path d="M250,163.65s-3.81-1.8-7.07-1.24-5.72,1.91-9.31,0-3.7-7.51,5.39-10.21,18.3-.93,22.55,2c5.5,3.82,2.13,8.64-.45,10C257.69,166,254.67,166.11,250,163.65Z" style="fill:#263238;stroke:#263238;stroke-linecap:round;stroke-linejoin:round"></path><path d="M245.81,169l-1.91,1.35c-1.12.78-.89,1-.22,1.79a7.54,7.54,0,0,0,2.36,1.46" style="fill:none;stroke:#263238;stroke-linecap:round;stroke-linejoin:round"></path><path d="M242.33,176.1s1.35,1.35,5.84,1.35,5.61-1.69,5.61-1.69" style="fill:none;stroke:#263238;stroke-linecap:round;stroke-linejoin:round"></path><path d="M243.79,176.89s.79,3.25,2.13,3.36,3.59-2.8,3.59-2.8S246.15,178.12,243.79,176.89Z" style="fill:none;stroke:#263238;stroke-linecap:round;stroke-linejoin:round"></path><path d="M266.79,224s-1.58-2.88.52-11" style="fill:none;stroke:#263238;stroke-linecap:round;stroke-linejoin:round"></path><path d="M269.83,212.17s-2.83,9.5-2.66,14.5-.5,15.66-.5,15.66a10.48,10.48,0,0,0-.17,7c1.33,3.34,11,8.17,14.83,2.5s3.67-33.16,2.34-39.33-4.17-9.17-7.17-9.67" style="fill:#92E3A9;stroke:#263238;stroke-linecap:round;stroke-linejoin:round"></path><path d="M277.8,234.27c-9.7,1.31-10,5.24-10,5.24s-1.84-4.72,5-12.06" style="fill:none;stroke:#263238;stroke-linecap:round;stroke-linejoin:round"></path><path d="M264.67,241.33A25,25,0,0,1,275.83,239c5.84.33,9.67,7.67,9.67,11a7,7,0,0,1-6,6.5c-3,.33-8.67,1.5-12.67-3.83S263.17,246.83,264.67,241.33Z" style="fill:#fff;stroke:#263238;stroke-linecap:round;stroke-linejoin:round"></path><path d="M207.17,220.67s1.33-4.84,2.83-5.67,6.33-1.5,5.83-.17S213,216,212.5,216.17s-1.33,3.16-1.5,3.66S208.67,222,207.17,220.67Z" style="fill:none;stroke:#263238;stroke-linecap:round;stroke-linejoin:round"></path><path d="M228.67,214s-11.84.17-14,.67-1.17,4.16-.67,6.33,1.67,3.67,2.5,3.67,0-2.34,1.33-2.34,8.67-.33,9.84.5,1.66,2.5,2.5,2.17,2.33-4.17,2-7.5A3.79,3.79,0,0,0,228.67,214Z" style="fill:#263238;stroke:#263238;stroke-linecap:round;stroke-linejoin:round"></path><path d="M206.67,219.83s5.66-1.5,7.33-1.33a2.86,2.86,0,0,1,2.83,2.33c.5,1.5-1.66,1-1.66,1l-2-.5-1.84.5,3,1.32a3,3,0,0,1,1.78,3.18,1.37,1.37,0,0,1-.91,1.17,49.81,49.81,0,0,1-5,1s1,2.67-.34,3.83a5.92,5.92,0,0,1-2,1.34s.67,13.66.17,18.83-2,10-5,11-5.5-1-4.67-7.17,6.34-24.66,6.5-27.16S206.5,221.17,206.67,219.83Z" style="fill:#fff;stroke:#263238;stroke-linecap:round;stroke-linejoin:round"></path><path d="M207.83,224.67s5.17-1.84,7.67,0" style="fill:none;stroke:#263238;stroke-linecap:round;stroke-linejoin:round"></path><path d="M208,227s5.49-1.68,8.08-.67" style="fill:none;stroke:#263238;stroke-linecap:round;stroke-linejoin:round"></path><path d="M211.33,221.83a11.43,11.43,0,0,0-3.33-.33" style="fill:none;stroke:#263238;stroke-linecap:round;stroke-linejoin:round"></path><path d="M283.33,249.5s-1.5-3.5-8.16-7c-5.78-3-19.17-8.67-24.34-13a79,79,0,0,1-11.83-13c-1.33-2-4.33-2.83-5.83-3.33s-6.34.33-7.17,1.5.5,2,2,1.16,3.17-.16,4,.17a17.24,17.24,0,0,1,3,2.67s-5.11-1.08-7.83.66c-1,.66-.17,3,1,4.67s3.5,6,4.66,6.17a9.63,9.63,0,0,0,3.5-.84,31.25,31.25,0,0,0,4.5,2.5,52.92,52.92,0,0,0,5.67.67,135.76,135.76,0,0,0,13.67,13.67c5.16,4.21,8.78,7.33,13.5,9.5C277.67,257.5,285.83,256.33,283.33,249.5Z" style="fill:#fff;stroke:#263238;stroke-linecap:round;stroke-linejoin:round"></path><line x1="233.7" y1="228.62" x2="236.51" y2="228.62" style="fill:none;stroke:#263238;stroke-linecap:round;stroke-linejoin:round"></line><path d="M228.17,224s.5-3.33,2.16-3.33,5.84.16,5.84.16" style="fill:none;stroke:#263238;stroke-linecap:round;stroke-linejoin:round"></path><path d="M230.09,226.41s.74-1.91,1.58-1.91h6.16" style="fill:none;stroke:#263238;stroke-linecap:round;stroke-linejoin:round"></path><path d="M217.49,402.84s-1.21,7.41-.52,8.62,5.18,2.07,7.94,2.07,4,.17,4.83-1.38,1.55-5.52,1.89-7.07-1.55-1-4.65-1-8.11-2.24-8.11-2.24S218.18,401.46,217.49,402.84Z" style="fill:#fff;stroke:#263238;stroke-linecap:round;stroke-linejoin:round"></path><path d="M257.33,408.36s-.51,5.17.18,6.9,4.48,2.58,6.9,2.41,4.48-.69,5.17-2.07,1-5.69,1-6.73-3.11-.17-6.39-.17S258.37,406.8,257.33,408.36Z" style="fill:#fff;stroke:#263238;stroke-linecap:round;stroke-linejoin:round"></path><polyline points="238.56 284.75 239.12 297.61 242.29 298.73 242.85 292.58" style="fill:none;stroke:#fff;stroke-linecap:round;stroke-linejoin:round"></polyline><line x1="240.67" y1="307" x2="234.46" y2="304.51" style="fill:none;stroke:#fff;stroke-linecap:round;stroke-linejoin:round"></line><path d="M262.3,175.54s5.61-4.94,6.51-1.12-4.49,6.28-6.28,6.5-1.35-1.68-1.35-1.68" style="fill:#fff;stroke:#263238;stroke-linecap:round;stroke-linejoin:round"></path></g></svg>
