<svg xmlns="http://www.w3.org/2000/svg" viewBox="0 0 500 500"><g id="freepik--Shadow--inject-2"><path d="M460.74,462.31c0,3.39-93.52,6.13-208.88,6.13s-208.88-2.75-208.88-6.13,93.52-6.13,208.88-6.13,208.88,2.75,208.88,6.13Z" style="fill:#f5f5f5;"></path></g><g id="freepik--Grid--inject-2"><g><path d="M465.11,217.84c-4.4,.44-11.76,1.17-19.27,1.91-8.49,.84-17.18,1.71-22.05,2.19-.64,.05-1.3,.1-1.97,.15,0-12.01,0-24.04,0-35.97,.97-.22,1.94-.44,2.9-.67,4.86-1.24,16.19-4.14,20.34-5.22,2.11-.62,5.63-1.65,9.27-2.71,4.11-1.2,8.37-2.44,10.88-3.18,.13-.04,.21-.18,.17-.31-.04-.13-.18-.21-.31-.17-2.25,.65-5.81,1.69-9.44,2.75-4.06,1.18-8.21,2.39-10.71,3.12-2.35,.63-7.05,1.82-11.6,2.97-3.53,.89-6.88,1.74-8.73,2.23-.92,.22-1.85,.42-2.77,.64,0-8.35,0-16.64,0-24.84,13.58-2.98,27.06-6.3,40.43-10.01h0c.13-.04,.21-.17,.17-.31-.04-.13-.17-.21-.31-.17-13.35,3.68-26.79,6.99-40.3,9.94,0-9.56,0-19,0-28.25,12.41-2.74,25.04-5.74,37.94-9,.13-.03,.21-.17,.18-.3-.03-.13-.17-.22-.3-.18-12.85,3.24-25.45,6.22-37.81,8.95,0-14.65-.01-28.82-.02-42.26,7.11-2.54,14.16-5.21,21.12-8.04h0c.13-.06,.19-.2,.14-.33-.05-.13-.2-.19-.33-.14-6.94,2.8-13.92,5.44-20.94,7.95,0-15.38-.02-29.79-.03-42.86,1.94-1.01,3.86-2.04,5.78-3.09h0c.12-.07,.17-.22,.1-.34-.07-.12-.22-.17-.34-.1-1.84,1-3.69,1.98-5.55,2.95,0-5.9-.01-11.54-.02-16.85,0-.14-.11-.25-.25-.25s-.25,.11-.25,.25c0,5.39-.01,11.12-.02,17.12-16.39,8.53-33.25,15.87-50.43,22.01,0-8.94-.02-17.33-.03-25.02,0-.14-.11-.25-.25-.25s-.25,.11-.25,.25c-.01,7.74-.02,16.2-.03,25.21-16.57,5.9-33.43,10.67-50.42,14.34,0-9.95-.02-19.22-.03-27.62,0-.14-.11-.25-.25-.25s-.25,.11-.25,.25c-.01,8.43-.02,17.74-.03,27.74-15.7,3.37-31.5,5.78-47.3,7.24-.01-13.31-.02-25.56-.04-36.38,0-.14-.11-.25-.25-.25s-.25,.11-.25,.25c-.01,10.84-.03,23.11-.04,36.44-15.82,1.44-31.62,1.92-47.29,1.45-.01-13.89-.02-26.66-.04-37.89,0-.14-.11-.25-.25-.25s-.25,.11-.25,.25c-.02,11.22-.03,23.99-.04,37.87-16.28-.52-32.41-2.06-48.26-4.65-.01-12.09-.02-23.26-.04-33.22,0-.14-.11-.25-.25-.25s-.25,.11-.25,.25c-.01,9.93-.03,21.07-.04,33.13-20.24-3.34-40-8.38-59-15.11,0-10.28-.02-19.85-.03-28.54,0-.14-.11-.25-.25-.25s-.25,.11-.25,.25c-.01,8.63-.02,18.14-.03,28.35-18.7-6.66-36.66-14.95-53.6-24.9,0-6.16-.01-12.03-.02-17.56,0-.14-.11-.25-.25-.25s-.25,.11-.25,.25c-.02,17.66-.04,38.78-.05,62.05-5.22-1.91-10.41-3.91-15.56-6h-.02c-.13-.06-.27,0-.33,.13-.05,.13,0,.27,.14,.33,5.2,2.13,10.46,4.15,15.77,6.1,0,12.74-.01,26.11-.02,39.92-10.69-2.58-21.49-5.37-32.45-8.39-.13-.04-.27,.04-.31,.17-.04,.13,.04,.27,.17,.31,11,3.04,21.85,5.85,32.58,8.44,0,7.71,0,15.54,0,23.48-11.68-2.86-23.33-5.97-34.93-9.35h0c-.13-.04-.27,.04-.31,.17-.04,.13,.04,.27,.17,.31,11.63,3.41,23.33,6.55,35.07,9.44,0,9.21,0,18.55,0,27.96-12.8-2.87-25.44-6.03-37.9-9.48-.13-.04-.27,.04-.31,.17-.04,.13,.04,.27,.17,.31,12.46,3.49,25.15,6.67,38.03,9.57,0,12,0,24.1,0,36.2-12.62-1.11-25.26-2.33-37.91-3.65h-.02c-.14-.02-.26,.08-.27,.22s.08,.26,.22,.27c12.54,1.34,25.21,2.56,37.99,3.67,0,11.75,0,23.5,0,35.12-12.21-.03-24.49-.06-36.86-.11h0c-.14,0-.25,.11-.25,.25s.11,.25,.25,.25c12.36,.06,24.64,.12,36.86,.16,0,11.81,0,23.48,0,34.91-12,1.46-23.99,3.05-35.97,4.81-.14,.02-.23,.15-.21,.28s.15,.23,.28,.21c11.95-1.73,23.92-3.3,35.9-4.74,0,11.69,0,23.12,.01,34.17-10.85,1.89-21.7,3.92-32.57,6.13-.14,.03-.22,.16-.2,.29,.03,.13,.16,.22,.29,.2,10.86-2.19,21.68-4.2,32.47-6.07,0,14.53,.02,28.39,.03,41.32-5.3,1.95-10.56,3.98-15.77,6.1h0c-.13,.06-.19,.2-.14,.33,.04,.1,.13,.16,.23,.16,.03,0,.06,0,.09-.02,5.17-2.09,10.37-4.08,15.59-6.01,.01,13.53,.02,26.03,.04,37.15,0,.14,.11,.25,.25,.25s.25-.11,.25-.25c.01-11.17,.03-23.75,.04-37.36,17.64-6.48,35.52-12.04,53.57-16.67,0,13,.02,25.2,.03,36.35-15.06,6.03-29.92,13.06-44.48,21.05h-.02c-.12,.08-.17,.23-.1,.35,.07,.12,.22,.17,.34,.1,14.59-7.99,29.37-14.96,44.26-20.92,0,4.98,.01,9.76,.02,14.29,0,.14,.11,.25,.25,.25s.25-.11,.25-.25c0-4.59,.01-9.44,.02-14.5,19.52-7.78,39.25-13.82,59.02-18.11,0,9.71,.02,18.77,.03,26.99,0,.14,.11,.25,.25,.25s.25-.11,.25-.25c.01-8.26,.02-17.36,.03-27.12,16.08-3.46,32.2-5.77,48.27-6.92,.01,12.4,.02,23.86,.04,34.04,0,.14,.11,.25,.25,.25s.25-.11,.25-.25c.01-10.19,.03-21.66,.04-34.09,15.84-1.11,31.63-1.11,47.29,.02,.01,12.41,.02,23.88,.04,34.07,0,.14,.11,.25,.25,.25s.25-.11,.25-.25c.01-10.18,.03-21.62,.04-34.02,15.92,1.17,31.72,3.5,47.3,6.99,0,10.26,.02,19.81,.03,28.44,0,.14,.11,.25,.25,.25s.25-.11,.25-.25c.01-8.59,.02-18.1,.03-28.31,17.1,3.86,33.94,9.12,50.42,15.78,0,5.88,.01,11.48,.02,16.75,0,.14,.11,.25,.25,.25s.25-.11,.25-.25c0-5.2,.01-10.73,.02-16.53,15.84,6.43,31.35,14.14,46.43,23.15,.04,.02,.08,.04,.13,.04,.08,0,.17-.04,.21-.12,.07-.12,.03-.27-.09-.34h-.01c-15.08-9.05-30.69-16.85-46.68-23.37,.01-11.57,.02-24.25,.03-37.72,17.08,4.02,33.9,8.92,50.38,14.71,.01,15.8,.03,30.3,.04,43,0,.14,.11,.25,.25,.25s.25-.11,.25-.25c.02-12.64,.03-27.08,.04-42.79,7.04,2.48,14.03,5.12,20.94,7.93h.02c.13,.06,.27,0,.33-.13,.05-.13,0-.27-.14-.33-6.95-2.84-14.01-5.52-21.14-8.04,0-11.8,.02-24.32,.02-37.37,12.7,2.32,25.32,4.92,37.83,7.77h0s.04,0,.06,0c.11,0,.22-.08,.24-.19,.03-.13-.05-.27-.19-.3h0c-12.51-2.88-25.16-5.49-37.94-7.83,0-10.36,0-21.04,.01-31.95,13.77,1.7,27.52,3.58,41.26,5.66h0s.03,0,.04,0c.12,0,.23-.09,.25-.21,.02-.14-.07-.26-.21-.29-13.76-2.11-27.54-4.02-41.33-5.74,0-12.02,0-24.31,0-36.73,14.11-.17,28.19-.34,42.23-.54,.14,0,.25-.12,.25-.25s-.11-.25-.25-.25h0s.02,0,0,0c-14.02,.17-28.09,.33-42.21,.47,0-10.52,0-21.14,0-31.77,.67-.05,1.35-.1,2.02-.15,4.29-.43,11.59-1.16,19.11-1.92,8.45-.85,17.17-1.72,22.21-2.23h0c.14-.01,.24-.14,.22-.27-.01-.14-.14-.24-.27-.22Zm-240.99,62.63c0-7.94,0-15.98,0-24.09,15.82-.04,31.55-.1,47.19-.18,0,8.25,0,16.44,0,24.52-15.73-.34-31.47-.42-47.2-.26Zm0-24.77c0-8.85,0-17.76,0-26.68,10.48,.15,20.95,.23,31.39,.23,5.27,0,10.54-.04,15.8-.08,0,8.81,0,17.61,0,26.35-15.63,.07-31.35,.13-47.19,.18Zm0-27.5c0-7.97,0-15.94,0-23.88,6.65,.23,13.33,.43,20.04,.53,2.4,.02,4.79,.03,7.18,.03,6.73,0,13.39-.08,19.97-.23,0,7.91,0,15.85,0,23.78-15.84,.07-31.57,0-47.19-.23Zm34.04-24.1c-.85,0-1.7,0-2.55,0-10.56,0-21.06-.17-31.49-.51,0-8.52,0-16.99,0-25.38,6.54,.24,13.08,.41,19.62,.49,3.4,.04,6.78,.06,10.17,.06,5.81,0,11.61-.09,17.41-.21,0,8.38,0,16.85,0,25.37-4.41,.09-8.8,.15-13.15,.17Zm13.82-26.09c0-8.49,0-16.89,0-25.13,15.55-.73,31.26-1.97,47.22-3.71,0,8.63,0,17.44,0,26.36-15.69,1.3-31.43,2.13-47.2,2.49Zm-.67,.01c-15.71,.34-31.45,.23-47.2-.36,0-8.16,0-16.24,0-24.17,4.91,.1,9.82,.16,14.74,.16,10.77,0,21.59-.25,32.48-.75,0,8.24,0,16.63,0,25.12Zm-47.87-.38c-16.06-.61-32.12-1.7-48.17-3.28,0-7.98,0-15.87,0-23.62,16.07,1.48,32.1,2.39,48.18,2.74,0,7.93,0,16,0,24.16Zm0,.56c0,8.38,0,16.86,0,25.38-16.22-.54-32.28-1.48-48.16-2.83,0-8.68,0-17.3,0-25.82,16.02,1.57,32.08,2.66,48.17,3.27Zm0,26.09c0,7.94,0,15.92,0,23.9-16.18-.24-32.24-.63-48.16-1.18,0-8.56,0-17.12,0-25.64,15.84,1.37,31.9,2.34,48.16,2.92Zm0,24.71c0,8.93,0,17.84,0,26.69-15.94,.05-31.99,.08-48.16,.1,0-9.29,0-18.66,0-28.03,16.09,.59,32.15,1,48.16,1.24Zm0,27.38c0,8.1,0,16.15,0,24.09-16.06,.17-32.12,.59-48.17,1.29,0-8.34,0-16.78,0-25.3,16.16-.01,32.21-.04,48.16-.08Zm.67,24.78c15.74-.16,31.47-.08,47.21,.25,0,9.45,0,18.74,0,27.82-9.03-.18-18.09-.25-27.18-.19-6.66,.04-13.34,.17-20.04,.35,0-9.21,0-18.64,0-28.23Zm47.87-.42c0-8.09,0-16.28,0-24.54,15.81-.08,31.54-.17,47.19-.28,0,8.96,0,17.86,0,26.63-15.73-.85-31.46-1.47-47.21-1.82Zm0-25.23c0-8.74,0-17.54,0-26.35,15.78-.12,31.52-.4,47.19-.87,0,9.01,0,18.02,0,26.96-15.63,.1-31.36,.18-47.19,.26Zm34.31-27.48c-11.49,.21-22.92,.33-34.31,.39,0-7.94,0-15.88,0-23.79,12.05-.28,23.8-.82,35.14-1.6,4.02-.27,8.04-.58,12.05-.91,0,8.48,0,17.01,0,25.54-4.41,.12-8.73,.24-12.88,.38Zm7.76-26.2c-13.55,1.06-27.87,1.77-42.07,2.08,0-8.52,0-16.99,0-25.37,15.8-.36,31.54-1.16,47.2-2.45,0,8.37,0,16.83,0,25.34-1.71,.14-3.41,.27-5.12,.4Zm-138.78,80.61c16.05-.69,32.11-1.1,48.17-1.27,0,9.59,0,19.03,0,28.24-15.96,.43-32.03,1.21-48.19,2.38,0-9.56,0-19.37,.01-29.35Zm96.69,26.81c0-9.07,0-18.37,0-27.81,15.74,.35,31.48,.95,47.21,1.8,0,9.57,0,18.98,0,28.17-15.62-1.09-31.37-1.82-47.23-2.15Zm47.88-107.86c0-8.52,0-16.98,0-25.34,16.87-1.4,33.65-3.36,50.31-5.84,0,8.34,0,16.78,0,25.27-16.75,2.58-33.55,4.55-50.3,5.91Zm0-25.92c0-8.93,0-17.74,0-26.38,16.47-1.81,33.22-4.17,50.33-7.07,0,9.04,0,18.26,0,27.61-16.7,2.49-33.48,4.43-50.31,5.84Zm0-26.95c0-11.59-.01-22.85-.02-33.64,16.93-2.61,33.76-6.01,50.36-10.16,0,11.76-.01,24.06-.02,36.74-17.11,2.89-33.85,5.24-50.33,7.05Zm-.65,.07c-15.96,1.74-31.66,2.98-47.22,3.7,0-11.03,0-21.78-.01-32.14,15.77-1.05,31.56-2.78,47.25-5.19,0,10.78-.01,22.04-.02,33.62Zm-47.87,3.74c-15.86,.73-31.57,.92-47.22,.59,0-10.87,0-21.48-.01-31.71,4.05,.09,8.11,.14,12.17,.14,2.65,0,5.3-.02,7.95-.06,9.03-.13,18.07-.5,27.12-1.09,0,10.36-.01,21.11-.01,32.13Zm-47.87,.57c-16.08-.36-32.11-1.27-48.18-2.74,0-11.1,0-21.91-.02-32.31,15.92,1.84,32.03,2.96,48.21,3.34,0,10.23-.01,20.84-.01,31.71Zm-48.83-2.79c-19.5-1.8-39.07-4.43-58.92-7.88,0-11.99,0-23.66-.02-34.84,8.95,2.13,17.98,4.03,27.09,5.68,10.52,1.9,21.15,3.47,31.86,4.72,0,10.4-.01,21.22-.02,32.33Zm0,.58c0,7.75,0,15.63,0,23.61-19.67-1.95-39.32-4.62-58.9-8.02,0-7.94,0-15.78,0-23.49,19.84,3.46,39.42,6.09,58.92,7.9Zm0,24.19c0,8.52,0,17.15,0,25.83-19.93-1.7-39.57-4.05-58.89-7.02,0-9.02,0-17.98,0-26.82,19.54,3.39,39.19,6.07,58.9,8.02Zm0,26.45c0,8.53,0,17.1,0,25.67-19.85-.69-39.49-1.63-58.89-2.82,0-9.99,0-19.98,0-29.9,19.26,2.97,38.91,5.31,58.89,7.05Zm0,26.42c0,9.38,0,18.76,0,28.06-19.45,.02-39.07,.03-58.9,.02,0-10.29,0-20.67,0-31.05,19.68,1.25,39.31,2.25,58.89,2.97Zm-16.27,28.74c5.44,0,10.86,0,16.27,0,0,8.52,0,16.98,0,25.33-19.65,.86-39.29,2.13-58.91,3.77,0-9.58,0-19.32,0-29.13,14.29,.02,28.5,.04,42.63,.04Zm16.28,25.99c0,9.99,0,19.8,.01,29.36-19.53,1.42-39.19,3.38-58.93,5.87,0-10.24,0-20.77,.01-31.5,19.62-1.63,39.26-2.88,58.91-3.73Zm.65,29.89c16.17-1.16,32.24-1.98,48.19-2.4,0,8.35,0,16.51,.01,24.42-16.09,.85-32.19,2.42-48.22,4.68,0-8.61,.01-17.53,.01-26.7Zm48.84-2.42c15.85-.41,31.59-.44,47.23-.12,0,8.26,0,16.33,.01,24.16-9.14-.33-18.31-.44-27.5-.3-6.57,.1-13.16,.32-19.75,.66,0-7.9,0-16.06,.01-24.4Zm47.87-.11c15.86,.33,31.6,1.03,47.23,2.11,0,8.89,0,17.57,.01,25.95-15.59-2-31.37-3.29-47.25-3.89,0-7.83,0-15.91,.01-24.17Zm47.87,1.61c0-9.19,0-18.61,0-28.18,16.78,.91,33.56,2.09,50.32,3.57,0,10.03,0,19.88,.01,29.48-16.61-2.06-33.4-3.68-50.34-4.87Zm.01-28.85c0-8.79,0-17.69,0-26.67,16.85-.12,33.62-.25,50.3-.41,0,10.35,0,20.6,0,30.69-16.76-1.49-33.53-2.69-50.32-3.61Zm0-27.34c0-8.95,0-17.96,0-26.98,16.84-.51,33.6-1.25,50.3-2.16,0,9.62,0,19.24,0,28.78-16.67,.14-33.43,.26-50.3,.37Zm34.86-28.9c-10.95,.62-23.1,.96-34.86,1.29,0-8.54,0-17.08,0-25.58,16.89-1.42,33.69-3.42,50.3-5.99,0,9.8,0,19.67,0,29.53-5.49,.31-10.73,.57-15.44,.75Zm-180.08,86.06c0,9.18,0,18.11,.01,26.73-19.84,2.83-39.55,6.73-58.96,11.67,0-10.39,.01-21.29,.02-32.55,19.79-2.49,39.43-4.44,58.93-5.85Zm145.19,25.56c0-8.39,0-17.08,.01-25.98,16.92,1.18,33.7,2.8,50.34,4.86,0,10.41,.01,20.51,.02,30.21-8.23-1.92-16.54-3.65-24.91-5.16-8.42-1.52-16.91-2.83-25.46-3.94Zm51-142.01c16.99-2.64,33.78-5.88,50.3-9.7,0,11.9,0,23.89,0,35.86-13.03,.99-32.84,2.44-50.3,3.42,0-9.88,0-19.77,0-29.59Zm0-.6c0-8.49,0-16.92,0-25.26,16.9-2.53,33.67-5.62,50.31-9.25,0,8.21,0,16.51,0,24.86-16.65,3.82-33.45,7.05-50.3,9.66Zm0-25.84c0-9.35,0-18.58,0-27.62,16.4-2.79,33.15-6.08,50.33-9.86,0,9.25,0,18.69,0,28.26-16.67,3.63-33.45,6.7-50.31,9.22Zm0-28.18c0-12.7-.01-25.02-.02-36.79,17.07-4.29,33.9-9.38,50.36-15.23,0,13.42-.01,27.56-.02,42.18-17.18,3.78-33.92,7.06-50.33,9.84Zm-.02-37.3c0-12.72-.02-24.78-.03-35.97,17.26-6.21,34.12-13.59,50.43-22.1-.01,13.06-.02,27.45-.03,42.8-16.6,5.91-33.42,11-50.37,15.28Zm-.61,.15c-16.68,4.19-33.49,7.59-50.36,10.19,0-11.12-.01-21.72-.02-31.65,17.07-3.73,33.92-8.56,50.41-14.47-.01,11.18-.02,23.23-.03,35.93Zm-50.98,10.29c-15.72,2.41-31.49,4.13-47.25,5.17,0-10.26-.01-20.11-.02-29.45,15.88-1.5,31.68-3.95,47.29-7.34,0,9.92-.02,20.52-.02,31.63Zm-47.87,5.21c-15.78,1.02-31.54,1.35-47.25,.99,0-10.04-.01-19.71-.02-28.89,3.69,.11,7.39,.17,11.1,.17,3.01,0,6.03-.04,9.06-.11,9.06-.21,18.11-.75,27.13-1.59,0,9.34-.01,19.19-.02,29.44Zm-47.87,.97c-16.17-.39-32.26-1.52-48.21-3.37,0-10.55-.01-20.66-.02-30.21,15.77,2.61,31.89,4.18,48.26,4.69,0,9.18-.01,18.85-.02,28.89Zm-48.83-3.44c-19.9-2.34-39.6-5.81-58.95-10.43,0-12.36-.02-24.12-.03-35.1,18.93,6.78,38.68,11.89,59,15.29,0,9.56-.02,19.68-.02,30.24Zm-59.56-10.57c-18.18-4.36-36.06-9.73-53.54-16.1,0-15.85-.02-30.7-.03-44.14,16.93,9.96,34.87,18.34,53.6,25.09,0,10.99-.02,22.77-.03,35.15Zm0,.57c0,11.2-.01,22.87-.02,34.88-17.58-3.07-35.37-6.78-53.51-11.14,0-13.78-.01-27.13-.02-39.85,17.37,6.35,35.27,11.73,53.54,16.11Zm-.02,35.44c0,7.71,0,15.55,0,23.49-17.89-3.12-35.73-6.85-53.49-11.18,0-7.93,0-15.77,0-23.48,18.14,4.37,35.93,8.09,53.51,11.16Zm0,24.07c0,8.85,0,17.81,0,26.83-18.12-2.8-35.95-6.17-53.48-10.08,0-9.4,0-18.74,0-27.95,17.72,4.33,35.56,8.07,53.49,11.19Zm0,27.42c0,9.95,0,19.96,0,29.97-14.69-.9-29.25-1.94-43.65-3.12-3.27-.27-6.55-.56-9.82-.85,0-12.06,0-24.13,0-36.1,17.47,3.91,35.3,7.28,53.48,10.1Zm-43.68,27.35c14.58,1.22,29.14,2.28,43.68,3.21,0,10.4,0,20.79,0,31.09-17.67-.01-35.49-.04-53.48-.08,0-11.6,0-23.32,0-35.06,3.26,.28,6.52,.56,9.79,.83Zm43.69,34.93c0,9.84,0,19.59,0,29.19-17.85,1.51-35.69,3.34-53.5,5.49,0-11.41,0-23.05,0-34.83,17.98,.07,35.8,.12,53.48,.15Zm0,29.82c0,10.74,0,21.28,.01,31.53-17.78,2.25-35.63,4.93-53.52,8.04,0-11.04,0-22.46,.01-34.14,17.81-2.13,35.65-3.94,53.5-5.43Zm.01,32.09c0,11.29,.01,22.21,.02,32.63-18.18,4.64-36.09,10.19-53.57,16.62,.01-12.89,.02-26.72,.03-41.21,17.95-3.11,35.79-5.79,53.52-8.03Zm59.58,21.28c0,10.46,.01,20.45,.02,29.83-6.22,1.36-12.44,2.87-18.63,4.57-13.56,3.71-27.05,8.26-40.39,13.58,.01-11.13,.02-23.31,.03-36.28,19.51-4.98,39.2-8.88,58.96-11.7Zm.61-.09c16.05-2.27,32.15-3.82,48.22-4.65,0,9.56,.01,18.75,.02,27.47-16.08,1.18-32.21,3.51-48.27,6.98,0-9.37,.02-19.35,.02-29.8Zm48.84-4.69c15.79-.8,31.56-.92,47.25-.34,0,9.67,.01,18.97,.02,27.8-8.96-.64-17.96-.93-26.98-.84-6.75,.07-13.53,.36-20.31,.84,0-8.72,.01-17.91,.02-27.46Zm47.87-.32c15.85,.6,31.62,1.92,47.25,3.93,0,10.83,.01,21.18,.02,30.89-15.54-3.49-31.35-5.83-47.3-7,0-8.83,.01-18.13,.02-27.81Zm47.86,4.01c16.98,2.21,33.79,5.25,50.37,9.12,0,13.44,.02,26.09,.03,37.64-12.35-5.01-24.93-9.25-37.67-12.68-4.23-1.14-8.48-2.18-12.76-3.15,0-9.72,.02-20.08,.02-30.93Zm50.99-21.58c16.94,2.12,33.72,4.69,50.34,7.72,0,13.01,.01,25.5,.02,37.27-16.39-5.77-33.22-10.69-50.38-14.72,0-9.71,.01-19.83,.02-30.27Zm0-.55c0-9.6,0-19.47,.01-29.5,16.79,1.49,33.57,3.25,50.32,5.3,0,10.9,0,21.57,.01,31.91-16.58-3.03-33.37-5.59-50.34-7.71Zm.01-30.13c0-10.11,0-20.38,0-30.75,16.84-.16,33.6-.34,50.3-.53,0,12.4,0,24.66,0,36.65-16.75-2.08-33.53-3.86-50.32-5.36Zm0-31.38c0-9.55,0-19.17,0-28.81,16.84-.93,33.61-2.05,50.3-3.39,0,10.62,0,21.22,0,31.72-16.68,.17-33.44,.33-50.3,.47Z" style="fill:#113A9A;"></path><path d="M465.11,217.84c-4.4,.44-11.76,1.17-19.27,1.91-8.49,.84-17.18,1.71-22.05,2.19-.64,.05-1.3,.1-1.97,.15,0-12.01,0-24.04,0-35.97,.97-.22,1.94-.44,2.9-.67,4.86-1.24,16.19-4.14,20.34-5.22,2.11-.62,5.63-1.65,9.27-2.71,4.11-1.2,8.37-2.44,10.88-3.18,.13-.04,.21-.18,.17-.31-.04-.13-.18-.21-.31-.17-2.25,.65-5.81,1.69-9.44,2.75-4.06,1.18-8.21,2.39-10.71,3.12-2.35,.63-7.05,1.82-11.6,2.97-3.53,.89-6.88,1.74-8.73,2.23-.92,.22-1.85,.42-2.77,.64,0-8.35,0-16.64,0-24.84,13.58-2.98,27.06-6.3,40.43-10.01h0c.13-.04,.21-.17,.17-.31-.04-.13-.17-.21-.31-.17-13.35,3.68-26.79,6.99-40.3,9.94,0-9.56,0-19,0-28.25,12.41-2.74,25.04-5.74,37.94-9,.13-.03,.21-.17,.18-.3-.03-.13-.17-.22-.3-.18-12.85,3.24-25.45,6.22-37.81,8.95,0-14.65-.01-28.82-.02-42.26,7.11-2.54,14.16-5.21,21.12-8.04h0c.13-.06,.19-.2,.14-.33-.05-.13-.2-.19-.33-.14-6.94,2.8-13.92,5.44-20.94,7.95,0-15.38-.02-29.79-.03-42.86,1.94-1.01,3.86-2.04,5.78-3.09h0c.12-.07,.17-.22,.1-.34-.07-.12-.22-.17-.34-.1-1.84,1-3.69,1.98-5.55,2.95,0-5.9-.01-11.54-.02-16.85,0-.14-.11-.25-.25-.25s-.25,.11-.25,.25c0,5.39-.01,11.12-.02,17.12-16.39,8.53-33.25,15.87-50.43,22.01,0-8.94-.02-17.33-.03-25.02,0-.14-.11-.25-.25-.25s-.25,.11-.25,.25c-.01,7.74-.02,16.2-.03,25.21-16.57,5.9-33.43,10.67-50.42,14.34,0-9.95-.02-19.22-.03-27.62,0-.14-.11-.25-.25-.25s-.25,.11-.25,.25c-.01,8.43-.02,17.74-.03,27.74-15.7,3.37-31.5,5.78-47.3,7.24-.01-13.31-.02-25.56-.04-36.38,0-.14-.11-.25-.25-.25s-.25,.11-.25,.25c-.01,10.84-.03,23.11-.04,36.44-15.82,1.44-31.62,1.92-47.29,1.45-.01-13.89-.02-26.66-.04-37.89,0-.14-.11-.25-.25-.25s-.25,.11-.25,.25c-.02,11.22-.03,23.99-.04,37.87-16.28-.52-32.41-2.06-48.26-4.65-.01-12.09-.02-23.26-.04-33.22,0-.14-.11-.25-.25-.25s-.25,.11-.25,.25c-.01,9.93-.03,21.07-.04,33.13-20.24-3.34-40-8.38-59-15.11,0-10.28-.02-19.85-.03-28.54,0-.14-.11-.25-.25-.25s-.25,.11-.25,.25c-.01,8.63-.02,18.14-.03,28.35-18.7-6.66-36.66-14.95-53.6-24.9,0-6.16-.01-12.03-.02-17.56,0-.14-.11-.25-.25-.25s-.25,.11-.25,.25c-.02,17.66-.04,38.78-.05,62.05-5.22-1.91-10.41-3.91-15.56-6h-.02c-.13-.06-.27,0-.33,.13-.05,.13,0,.27,.14,.33,5.2,2.13,10.46,4.15,15.77,6.1,0,12.74-.01,26.11-.02,39.92-10.69-2.58-21.49-5.37-32.45-8.39-.13-.04-.27,.04-.31,.17-.04,.13,.04,.27,.17,.31,11,3.04,21.85,5.85,32.58,8.44,0,7.71,0,15.54,0,23.48-11.68-2.86-23.33-5.97-34.93-9.35h0c-.13-.04-.27,.04-.31,.17-.04,.13,.04,.27,.17,.31,11.63,3.41,23.33,6.55,35.07,9.44,0,9.21,0,18.55,0,27.96-12.8-2.87-25.44-6.03-37.9-9.48-.13-.04-.27,.04-.31,.17-.04,.13,.04,.27,.17,.31,12.46,3.49,25.15,6.67,38.03,9.57,0,12,0,24.1,0,36.2-12.62-1.11-25.26-2.33-37.91-3.65h-.02c-.14-.02-.26,.08-.27,.22s.08,.26,.22,.27c12.54,1.34,25.21,2.56,37.99,3.67,0,11.75,0,23.5,0,35.12-12.21-.03-24.49-.06-36.86-.11h0c-.14,0-.25,.11-.25,.25s.11,.25,.25,.25c12.36,.06,24.64,.12,36.86,.16,0,11.81,0,23.48,0,34.91-12,1.46-23.99,3.05-35.97,4.81-.14,.02-.23,.15-.21,.28s.15,.23,.28,.21c11.95-1.73,23.92-3.3,35.9-4.74,0,11.69,0,23.12,.01,34.17-10.85,1.89-21.7,3.92-32.57,6.13-.14,.03-.22,.16-.2,.29,.03,.13,.16,.22,.29,.2,10.86-2.19,21.68-4.2,32.47-6.07,0,14.53,.02,28.39,.03,41.32-5.3,1.95-10.56,3.98-15.77,6.1h0c-.13,.06-.19,.2-.14,.33,.04,.1,.13,.16,.23,.16,.03,0,.06,0,.09-.02,5.17-2.09,10.37-4.08,15.59-6.01,.01,13.53,.02,26.03,.04,37.15,0,.14,.11,.25,.25,.25s.25-.11,.25-.25c.01-11.17,.03-23.75,.04-37.36,17.64-6.48,35.52-12.04,53.57-16.67,0,13,.02,25.2,.03,36.35-15.06,6.03-29.92,13.06-44.48,21.05h-.02c-.12,.08-.17,.23-.1,.35,.07,.12,.22,.17,.34,.1,14.59-7.99,29.37-14.96,44.26-20.92,0,4.98,.01,9.76,.02,14.29,0,.14,.11,.25,.25,.25s.25-.11,.25-.25c0-4.59,.01-9.44,.02-14.5,19.52-7.78,39.25-13.82,59.02-18.11,0,9.71,.02,18.77,.03,26.99,0,.14,.11,.25,.25,.25s.25-.11,.25-.25c.01-8.26,.02-17.36,.03-27.12,16.08-3.46,32.2-5.77,48.27-6.92,.01,12.4,.02,23.86,.04,34.04,0,.14,.11,.25,.25,.25s.25-.11,.25-.25c.01-10.19,.03-21.66,.04-34.09,15.84-1.11,31.63-1.11,47.29,.02,.01,12.41,.02,23.88,.04,34.07,0,.14,.11,.25,.25,.25s.25-.11,.25-.25c.01-10.18,.03-21.62,.04-34.02,15.92,1.17,31.72,3.5,47.3,6.99,0,10.26,.02,19.81,.03,28.44,0,.14,.11,.25,.25,.25s.25-.11,.25-.25c.01-8.59,.02-18.1,.03-28.31,17.1,3.86,33.94,9.12,50.42,15.78,0,5.88,.01,11.48,.02,16.75,0,.14,.11,.25,.25,.25s.25-.11,.25-.25c0-5.2,.01-10.73,.02-16.53,15.84,6.43,31.35,14.14,46.43,23.15,.04,.02,.08,.04,.13,.04,.08,0,.17-.04,.21-.12,.07-.12,.03-.27-.09-.34h-.01c-15.08-9.05-30.69-16.85-46.68-23.37,.01-11.57,.02-24.25,.03-37.72,17.08,4.02,33.9,8.92,50.38,14.71,.01,15.8,.03,30.3,.04,43,0,.14,.11,.25,.25,.25s.25-.11,.25-.25c.02-12.64,.03-27.08,.04-42.79,7.04,2.48,14.03,5.12,20.94,7.93h.02c.13,.06,.27,0,.33-.13,.05-.13,0-.27-.14-.33-6.95-2.84-14.01-5.52-21.14-8.04,0-11.8,.02-24.32,.02-37.37,12.7,2.32,25.32,4.92,37.83,7.77h0s.04,0,.06,0c.11,0,.22-.08,.24-.19,.03-.13-.05-.27-.19-.3h0c-12.51-2.88-25.16-5.49-37.94-7.83,0-10.36,0-21.04,.01-31.95,13.77,1.7,27.52,3.58,41.26,5.66h0s.03,0,.04,0c.12,0,.23-.09,.25-.21,.02-.14-.07-.26-.21-.29-13.76-2.11-27.54-4.02-41.33-5.74,0-12.02,0-24.31,0-36.73,14.11-.17,28.19-.34,42.23-.54,.14,0,.25-.12,.25-.25s-.11-.25-.25-.25h0s.02,0,0,0c-14.02,.17-28.09,.33-42.21,.47,0-10.52,0-21.14,0-31.77,.67-.05,1.35-.1,2.02-.15,4.29-.43,11.59-1.16,19.11-1.92,8.45-.85,17.17-1.72,22.21-2.23h0c.14-.01,.24-.14,.22-.27-.01-.14-.14-.24-.27-.22Zm-240.99,62.63c0-7.94,0-15.98,0-24.09,15.82-.04,31.55-.1,47.19-.18,0,8.25,0,16.44,0,24.52-15.73-.34-31.47-.42-47.2-.26Zm0-24.77c0-8.85,0-17.76,0-26.68,10.48,.15,20.95,.23,31.39,.23,5.27,0,10.54-.04,15.8-.08,0,8.81,0,17.61,0,26.35-15.63,.07-31.35,.13-47.19,.18Zm0-27.5c0-7.97,0-15.94,0-23.88,6.65,.23,13.33,.43,20.04,.53,2.4,.02,4.79,.03,7.18,.03,6.73,0,13.39-.08,19.97-.23,0,7.91,0,15.85,0,23.78-15.84,.07-31.57,0-47.19-.23Zm34.04-24.1c-.85,0-1.7,0-2.55,0-10.56,0-21.06-.17-31.49-.51,0-8.52,0-16.99,0-25.38,6.54,.24,13.08,.41,19.62,.49,3.4,.04,6.78,.06,10.17,.06,5.81,0,11.61-.09,17.41-.21,0,8.38,0,16.85,0,25.37-4.41,.09-8.8,.15-13.15,.17Zm13.82-26.09c0-8.49,0-16.89,0-25.13,15.55-.73,31.26-1.97,47.22-3.71,0,8.63,0,17.44,0,26.36-15.69,1.3-31.43,2.13-47.2,2.49Zm-.67,.01c-15.71,.34-31.45,.23-47.2-.36,0-8.16,0-16.24,0-24.17,4.91,.1,9.82,.16,14.74,.16,10.77,0,21.59-.25,32.48-.75,0,8.24,0,16.63,0,25.12Zm-47.87-.38c-16.06-.61-32.12-1.7-48.17-3.28,0-7.98,0-15.87,0-23.62,16.07,1.48,32.1,2.39,48.18,2.74,0,7.93,0,16,0,24.16Zm0,.56c0,8.38,0,16.86,0,25.38-16.22-.54-32.28-1.48-48.16-2.83,0-8.68,0-17.3,0-25.82,16.02,1.57,32.08,2.66,48.17,3.27Zm0,26.09c0,7.94,0,15.92,0,23.9-16.18-.24-32.24-.63-48.16-1.18,0-8.56,0-17.12,0-25.64,15.84,1.37,31.9,2.34,48.16,2.92Zm0,24.71c0,8.93,0,17.84,0,26.69-15.94,.05-31.99,.08-48.16,.1,0-9.29,0-18.66,0-28.03,16.09,.59,32.15,1,48.16,1.24Zm0,27.38c0,8.1,0,16.15,0,24.09-16.06,.17-32.12,.59-48.17,1.29,0-8.34,0-16.78,0-25.3,16.16-.01,32.21-.04,48.16-.08Zm.67,24.78c15.74-.16,31.47-.08,47.21,.25,0,9.45,0,18.74,0,27.82-9.03-.18-18.09-.25-27.18-.19-6.66,.04-13.34,.17-20.04,.35,0-9.21,0-18.64,0-28.23Zm47.87-.42c0-8.09,0-16.28,0-24.54,15.81-.08,31.54-.17,47.19-.28,0,8.96,0,17.86,0,26.63-15.73-.85-31.46-1.47-47.21-1.82Zm0-25.23c0-8.74,0-17.54,0-26.35,15.78-.12,31.52-.4,47.19-.87,0,9.01,0,18.02,0,26.96-15.63,.1-31.36,.18-47.19,.26Zm34.31-27.48c-11.49,.21-22.92,.33-34.31,.39,0-7.94,0-15.88,0-23.79,12.05-.28,23.8-.82,35.14-1.6,4.02-.27,8.04-.58,12.05-.91,0,8.48,0,17.01,0,25.54-4.41,.12-8.73,.24-12.88,.38Zm7.76-26.2c-13.55,1.06-27.87,1.77-42.07,2.08,0-8.52,0-16.99,0-25.37,15.8-.36,31.54-1.16,47.2-2.45,0,8.37,0,16.83,0,25.34-1.71,.14-3.41,.27-5.12,.4Zm-138.78,80.61c16.05-.69,32.11-1.1,48.17-1.27,0,9.59,0,19.03,0,28.24-15.96,.43-32.03,1.21-48.19,2.38,0-9.56,0-19.37,.01-29.35Zm96.69,26.81c0-9.07,0-18.37,0-27.81,15.74,.35,31.48,.95,47.21,1.8,0,9.57,0,18.98,0,28.17-15.62-1.09-31.37-1.82-47.23-2.15Zm47.88-107.86c0-8.52,0-16.98,0-25.34,16.87-1.4,33.65-3.36,50.31-5.84,0,8.34,0,16.78,0,25.27-16.75,2.58-33.55,4.55-50.3,5.91Zm0-25.92c0-8.93,0-17.74,0-26.38,16.47-1.81,33.22-4.17,50.33-7.07,0,9.04,0,18.26,0,27.61-16.7,2.49-33.48,4.43-50.31,5.84Zm0-26.95c0-11.59-.01-22.85-.02-33.64,16.93-2.61,33.76-6.01,50.36-10.16,0,11.76-.01,24.06-.02,36.74-17.11,2.89-33.85,5.24-50.33,7.05Zm-.65,.07c-15.96,1.74-31.66,2.98-47.22,3.7,0-11.03,0-21.78-.01-32.14,15.77-1.05,31.56-2.78,47.25-5.19,0,10.78-.01,22.04-.02,33.62Zm-47.87,3.74c-15.86,.73-31.57,.92-47.22,.59,0-10.87,0-21.48-.01-31.71,4.05,.09,8.11,.14,12.17,.14,2.65,0,5.3-.02,7.95-.06,9.03-.13,18.07-.5,27.12-1.09,0,10.36-.01,21.11-.01,32.13Zm-47.87,.57c-16.08-.36-32.11-1.27-48.18-2.74,0-11.1,0-21.91-.02-32.31,15.92,1.84,32.03,2.96,48.21,3.34,0,10.23-.01,20.84-.01,31.71Zm-48.83-2.79c-19.5-1.8-39.07-4.43-58.92-7.88,0-11.99,0-23.66-.02-34.84,8.95,2.13,17.98,4.03,27.09,5.68,10.52,1.9,21.15,3.47,31.86,4.72,0,10.4-.01,21.22-.02,32.33Zm0,.58c0,7.75,0,15.63,0,23.61-19.67-1.95-39.32-4.62-58.9-8.02,0-7.94,0-15.78,0-23.49,19.84,3.46,39.42,6.09,58.92,7.9Zm0,24.19c0,8.52,0,17.15,0,25.83-19.93-1.7-39.57-4.05-58.89-7.02,0-9.02,0-17.98,0-26.82,19.54,3.39,39.19,6.07,58.9,8.02Zm0,26.45c0,8.53,0,17.1,0,25.67-19.85-.69-39.49-1.63-58.89-2.82,0-9.99,0-19.98,0-29.9,19.26,2.97,38.91,5.31,58.89,7.05Zm0,26.42c0,9.38,0,18.76,0,28.06-19.45,.02-39.07,.03-58.9,.02,0-10.29,0-20.67,0-31.05,19.68,1.25,39.31,2.25,58.89,2.97Zm-16.27,28.74c5.44,0,10.86,0,16.27,0,0,8.52,0,16.98,0,25.33-19.65,.86-39.29,2.13-58.91,3.77,0-9.58,0-19.32,0-29.13,14.29,.02,28.5,.04,42.63,.04Zm16.28,25.99c0,9.99,0,19.8,.01,29.36-19.53,1.42-39.19,3.38-58.93,5.87,0-10.24,0-20.77,.01-31.5,19.62-1.63,39.26-2.88,58.91-3.73Zm.65,29.89c16.17-1.16,32.24-1.98,48.19-2.4,0,8.35,0,16.51,.01,24.42-16.09,.85-32.19,2.42-48.22,4.68,0-8.61,.01-17.53,.01-26.7Zm48.84-2.42c15.85-.41,31.59-.44,47.23-.12,0,8.26,0,16.33,.01,24.16-9.14-.33-18.31-.44-27.5-.3-6.57,.1-13.16,.32-19.75,.66,0-7.9,0-16.06,.01-24.4Zm47.87-.11c15.86,.33,31.6,1.03,47.23,2.11,0,8.89,0,17.57,.01,25.95-15.59-2-31.37-3.29-47.25-3.89,0-7.83,0-15.91,.01-24.17Zm47.87,1.61c0-9.19,0-18.61,0-28.18,16.78,.91,33.56,2.09,50.32,3.57,0,10.03,0,19.88,.01,29.48-16.61-2.06-33.4-3.68-50.34-4.87Zm.01-28.85c0-8.79,0-17.69,0-26.67,16.85-.12,33.62-.25,50.3-.41,0,10.35,0,20.6,0,30.69-16.76-1.49-33.53-2.69-50.32-3.61Zm0-27.34c0-8.95,0-17.96,0-26.98,16.84-.51,33.6-1.25,50.3-2.16,0,9.62,0,19.24,0,28.78-16.67,.14-33.43,.26-50.3,.37Zm34.86-28.9c-10.95,.62-23.1,.96-34.86,1.29,0-8.54,0-17.08,0-25.58,16.89-1.42,33.69-3.42,50.3-5.99,0,9.8,0,19.67,0,29.53-5.49,.31-10.73,.57-15.44,.75Zm-180.08,86.06c0,9.18,0,18.11,.01,26.73-19.84,2.83-39.55,6.73-58.96,11.67,0-10.39,.01-21.29,.02-32.55,19.79-2.49,39.43-4.44,58.93-5.85Zm145.19,25.56c0-8.39,0-17.08,.01-25.98,16.92,1.18,33.7,2.8,50.34,4.86,0,10.41,.01,20.51,.02,30.21-8.23-1.92-16.54-3.65-24.91-5.16-8.42-1.52-16.91-2.83-25.46-3.94Zm51-142.01c16.99-2.64,33.78-5.88,50.3-9.7,0,11.9,0,23.89,0,35.86-13.03,.99-32.84,2.44-50.3,3.42,0-9.88,0-19.77,0-29.59Zm0-.6c0-8.49,0-16.92,0-25.26,16.9-2.53,33.67-5.62,50.31-9.25,0,8.21,0,16.51,0,24.86-16.65,3.82-33.45,7.05-50.3,9.66Zm0-25.84c0-9.35,0-18.58,0-27.62,16.4-2.79,33.15-6.08,50.33-9.86,0,9.25,0,18.69,0,28.26-16.67,3.63-33.45,6.7-50.31,9.22Zm0-28.18c0-12.7-.01-25.02-.02-36.79,17.07-4.29,33.9-9.38,50.36-15.23,0,13.42-.01,27.56-.02,42.18-17.18,3.78-33.92,7.06-50.33,9.84Zm-.02-37.3c0-12.72-.02-24.78-.03-35.97,17.26-6.21,34.12-13.59,50.43-22.1-.01,13.06-.02,27.45-.03,42.8-16.6,5.91-33.42,11-50.37,15.28Zm-.61,.15c-16.68,4.19-33.49,7.59-50.36,10.19,0-11.12-.01-21.72-.02-31.65,17.07-3.73,33.92-8.56,50.41-14.47-.01,11.18-.02,23.23-.03,35.93Zm-50.98,10.29c-15.72,2.41-31.49,4.13-47.25,5.17,0-10.26-.01-20.11-.02-29.45,15.88-1.5,31.68-3.95,47.29-7.34,0,9.92-.02,20.52-.02,31.63Zm-47.87,5.21c-15.78,1.02-31.54,1.35-47.25,.99,0-10.04-.01-19.71-.02-28.89,3.69,.11,7.39,.17,11.1,.17,3.01,0,6.03-.04,9.06-.11,9.06-.21,18.11-.75,27.13-1.59,0,9.34-.01,19.19-.02,29.44Zm-47.87,.97c-16.17-.39-32.26-1.52-48.21-3.37,0-10.55-.01-20.66-.02-30.21,15.77,2.61,31.89,4.18,48.26,4.69,0,9.18-.01,18.85-.02,28.89Zm-48.83-3.44c-19.9-2.34-39.6-5.81-58.95-10.43,0-12.36-.02-24.12-.03-35.1,18.93,6.78,38.68,11.89,59,15.29,0,9.56-.02,19.68-.02,30.24Zm-59.56-10.57c-18.18-4.36-36.06-9.73-53.54-16.1,0-15.85-.02-30.7-.03-44.14,16.93,9.96,34.87,18.34,53.6,25.09,0,10.99-.02,22.77-.03,35.15Zm0,.57c0,11.2-.01,22.87-.02,34.88-17.58-3.07-35.37-6.78-53.51-11.14,0-13.78-.01-27.13-.02-39.85,17.37,6.35,35.27,11.73,53.54,16.11Zm-.02,35.44c0,7.71,0,15.55,0,23.49-17.89-3.12-35.73-6.85-53.49-11.18,0-7.93,0-15.77,0-23.48,18.14,4.37,35.93,8.09,53.51,11.16Zm0,24.07c0,8.85,0,17.81,0,26.83-18.12-2.8-35.95-6.17-53.48-10.08,0-9.4,0-18.74,0-27.95,17.72,4.33,35.56,8.07,53.49,11.19Zm0,27.42c0,9.95,0,19.96,0,29.97-14.69-.9-29.25-1.94-43.65-3.12-3.27-.27-6.55-.56-9.82-.85,0-12.06,0-24.13,0-36.1,17.47,3.91,35.3,7.28,53.48,10.1Zm-43.68,27.35c14.58,1.22,29.14,2.28,43.68,3.21,0,10.4,0,20.79,0,31.09-17.67-.01-35.49-.04-53.48-.08,0-11.6,0-23.32,0-35.06,3.26,.28,6.52,.56,9.79,.83Zm43.69,34.93c0,9.84,0,19.59,0,29.19-17.85,1.51-35.69,3.34-53.5,5.49,0-11.41,0-23.05,0-34.83,17.98,.07,35.8,.12,53.48,.15Zm0,29.82c0,10.74,0,21.28,.01,31.53-17.78,2.25-35.63,4.93-53.52,8.04,0-11.04,0-22.46,.01-34.14,17.81-2.13,35.65-3.94,53.5-5.43Zm.01,32.09c0,11.29,.01,22.21,.02,32.63-18.18,4.64-36.09,10.19-53.57,16.62,.01-12.89,.02-26.72,.03-41.21,17.95-3.11,35.79-5.79,53.52-8.03Zm59.58,21.28c0,10.46,.01,20.45,.02,29.83-6.22,1.36-12.44,2.87-18.63,4.57-13.56,3.71-27.05,8.26-40.39,13.58,.01-11.13,.02-23.31,.03-36.28,19.51-4.98,39.2-8.88,58.96-11.7Zm.61-.09c16.05-2.27,32.15-3.82,48.22-4.65,0,9.56,.01,18.75,.02,27.47-16.08,1.18-32.21,3.51-48.27,6.98,0-9.37,.02-19.35,.02-29.8Zm48.84-4.69c15.79-.8,31.56-.92,47.25-.34,0,9.67,.01,18.97,.02,27.8-8.96-.64-17.96-.93-26.98-.84-6.75,.07-13.53,.36-20.31,.84,0-8.72,.01-17.91,.02-27.46Zm47.87-.32c15.85,.6,31.62,1.92,47.25,3.93,0,10.83,.01,21.18,.02,30.89-15.54-3.49-31.35-5.83-47.3-7,0-8.83,.01-18.13,.02-27.81Zm47.86,4.01c16.98,2.21,33.79,5.25,50.37,9.12,0,13.44,.02,26.09,.03,37.64-12.35-5.01-24.93-9.25-37.67-12.68-4.23-1.14-8.48-2.18-12.76-3.15,0-9.72,.02-20.08,.02-30.93Zm50.99-21.58c16.94,2.12,33.72,4.69,50.34,7.72,0,13.01,.01,25.5,.02,37.27-16.39-5.77-33.22-10.69-50.38-14.72,0-9.71,.01-19.83,.02-30.27Zm0-.55c0-9.6,0-19.47,.01-29.5,16.79,1.49,33.57,3.25,50.32,5.3,0,10.9,0,21.57,.01,31.91-16.58-3.03-33.37-5.59-50.34-7.71Zm.01-30.13c0-10.11,0-20.38,0-30.75,16.84-.16,33.6-.34,50.3-.53,0,12.4,0,24.66,0,36.65-16.75-2.08-33.53-3.86-50.32-5.36Zm0-31.38c0-9.55,0-19.17,0-28.81,16.84-.93,33.61-2.05,50.3-3.39,0,10.62,0,21.22,0,31.72-16.68,.17-33.44,.33-50.3,.47Z" style="fill:#fff; opacity:.4;"></path></g></g><g id="freepik--Planets--inject-2"><g><path d="M72.35,312.75c19.36-4.33,38.56,7.85,42.9,27.21,4.33,19.36-7.85,38.56-27.21,42.9-19.36,4.33-38.56-7.85-42.9-27.21l-.03-.13c-4.25-19.32,7.92-38.45,27.23-42.77Z" style="fill:#113A9A;"></path><path d="M72.35,312.75c19.36-4.33,38.56,7.85,42.9,27.21,4.33,19.36-7.85,38.56-27.21,42.9-19.36,4.33-38.56-7.85-42.9-27.21l-.03-.13c-4.25-19.32,7.92-38.45,27.23-42.77Z" style="fill:#fff; isolation:isolate; opacity:.5;"></path><path d="M112.37,332c-.65,1.05-1.22-.39-3.54,.79-2.26,1.01-4.69,1.58-7.16,1.7l-.52,1c-.48,1.05-4.89-.65-4.89-2.36s0,0,3.4-1c3.4-1,0,0,.31-2.44,.31-2.44-.96-1.35-2.36-3.06-.76-1-2.18-1.2-3.18-.44h0c-1.05,.62-.92,1.79-1.92,2.06-1,.26-.57,.87-1,1.18-.44,.31-1.13,0-1.7,0s-1.31-.48-1.66,0c-.35,.48-.26,.61-.35,.87-.38,.04-.76,.04-1.13,0-.26,0-.57-.35-.57-.57-.03-.14-.03-.29,0-.44,.18-.43,.43-.83,.74-1.18,.3-.37,.81-.51,1.27-.35,.1-.41-.04-.85-.35-1.13h1.4c.35,0,1.35-2.88,1.44-3.32,.01-.37-.17-.72-.48-.92-.39-.22-.87,0-1.35,0s-1.48-1.35-2.4-1.22c-.23,.07-.45,.17-.65,.31l-1.09,.79c-.18,.08-.35,.2-.48,.35-.02,.23-.02,.47,0,.7-.04,.21-.19,.38-.39,.44,.83,0-.31,.83-.48,.87-.87,.31-2.58-.31-3.58-.39-.17,.07-.36,.07-.52,0-.02-.13-.02-.26,0-.39-.26-.61-.48-1.27-.7-1.88s-.7-2.84,.39-3.45c1.09-.61,2.31,0,2.66-1.13,.04-.13,.12-.25,.22-.35,.31-.26,.65,.35,.61,.79-.13,.69-.13,1.4,0,2.1,.26,.7,1.18,1.13,1.7,.7-.35-.52,.35-1.13,.96-1.13s1.31,.31,1.88,0c.5-.32,.74-.91,.61-1.48-.13-.57-.38-1.11-.74-1.57-.74,.3-1.59,.18-2.23-.31-.52-.39-1.05-1.09-1.66-.83,.26-.28,.49-.59,.7-.92-.4-.2-.8-.38-1.22-.52-.39-.22-.79-.65-.57-1.09,.07-.13,.17-.24,.31-.31h0c2.3,.07,4.59,.41,6.81,1-.7,1.31-.87,3.71,2.4,4.89,4.76,1.7,0,0,4.36-2.36h0c3.44,1.64,6.59,3.82,9.34,6.46l-1.92,1.4c-2.01,1.35,.65,2.05,.65,2.05h2.75c1.48,0,1.35,0,1.44-.31,1.73,1.96,3.22,4.11,4.45,6.42Z" style="isolation:isolate; opacity:.1;"></path><path d="M58.6,334.32c.02,.17,.02,.35,0,.52-.26,.92-1.61,.61-2.53,.87-1.92,.61-1.44,3.97-3.32,4.84-.92,.39-2.01,0-2.92,.39-.61,.44-1.17,.95-1.66,1.53-.99,.88-2.32,1.26-3.62,1.05,.75-6.77,3.47-13.17,7.81-18.42,.35-.06,.7-.06,1.05,0,.69,.24,1.18,.85,1.27,1.57,.13,.72,.13,1.46,0,2.18l1.4-1.05c.62,.41,.79,1.25,.38,1.88-.01,.02-.02,.03-.03,.05-.44,.61-1.31,.7-2.09,.83s-1.66,.57-1.7,1.31c-.04,.74,.44,1.18,.83,1.66,.39,.48,.79,1.22,.44,1.75l3.06-1.79c.18-.1,.37-.18,.57-.22,.57,.04,1.03,.48,1.09,1.05Z" style="isolation:isolate; opacity:.2;"></path><path d="M60.83,329.56l-.26,.83c.77,.28,1.63,.28,2.4,0,.25-.11,.48-.27,.65-.48,.31-.4,.49-.89,.52-1.4,.09-.65,.09-1.31,0-1.96-.08-.66-.47-1.24-1.05-1.57-.6-.33-1.36-.12-1.7,.48-.26,.57,0,1.27-.31,1.83-.31,.57-.87,.7-1.05,1.18-.12,.47,.16,.94,.62,1.06,.05,.01,.11,.02,.16,.03Z" style="isolation:isolate; opacity:.2;"></path><path d="M76.06,314.81c-1.09,.92-2.84-.31-4.15,.31-1.31,.61-1.05,1.27-1.79,1.4-.41,.02-.81,.02-1.22,0-.44,0-.87,.31-.83,.7,.05,.19,.16,.35,.31,.48l1.09,1c.13,.13,.25,.28,.35,.44,.16,.48-.09,1-.57,1.16-.01,0-.03,0-.04,.01-.47,.15-.97,.15-1.44,0-.3-.03-.6-.1-.87-.22-.26,0-.44-.57-.26-.83l.31-.31c.28-.27,.41-.66,.35-1.05-.04-.42-.4-.74-.83-.74l-.57,.26-1.88,1.13c-.87,.48-1.96,1-2.84,.57-.17-.01-.32-.11-.39-.26v-.57c.07-.23,.07-.47,0-.7,3.53-2.31,7.45-3.95,11.57-4.84,1.34-.31,2.69-.53,4.06-.65h0c.26,1,.35,2.14-.35,2.71Z" style="isolation:isolate; opacity:.2;"></path><path d="M68.68,323.93c-.38-.15-.81,.05-.96,.43-.03,.07-.04,.15-.05,.22l.44,.7v-.39c0,.39,.48,.79,.83,.48,.31-.35,.31-.87,0-1.22l-.26-.22Z" style="isolation:isolate; opacity:.2;"></path><path d="M84.53,334.23c-.57-.61-1.57-.39-2.44-.31-.87,.09-1.96-.35-1.92-1.18s.92-1.05,1.66-1.09c.07-1.2-.84-2.24-2.05-2.31-.07,0-.15,0-.22,0,.31,.7,.31,1.49,0,2.18-.27,.67-1.04,.99-1.71,.71-.04-.02-.08-.04-.12-.06-1.09-.83,.26-3.01-.79-3.88-.57-.27-1.22-.27-1.79,0-2.09,.48-4.36,1.22-5.19,3.23,0,.22-1.75,0-2.27,0s-.83,1.61-.92,2.18c-.13,.31-.13,.65,0,.96,0,.35,.57,.7,.39,1.05-.17,.35-.44,.26-.61,.48-.17,.22,1.13,2.18,1.57,2.4,.44,.22,1.66,0,2.49,.39,.61,.45,.91,1.22,.74,1.96h-.79c.42,1.07,.06,2.29-.87,2.97,1.13-.22,2.29,.14,3.1,.96,0,0,.39,.44,.65,.44,.18-.03,.34-.1,.48-.22,.88-.52,1.51-1.37,1.75-2.36h.87c0-.48,0-1.27-.52-1.09-.52,.17,0,0-.31,.26-.31,.26-1.13,0-1.18-.74,.03-.58,.25-1.13,.61-1.57,.22-.26,.39-.57,.61-.87,.4-.72,1.05-1.26,1.83-1.53,1.35-.31,2.44,1.13,3.1,2.36,.26,.52,.39,1.35,0,1.44-.39,.09-.61-.22-.83,0-.22,.22,0,.7-.44,.92-.44,.22-.48,0-.7,0s-.48,1,0,1.53c.48,.52,.65-.31,1-.52,.35-.22,1.66,.35,2.44,0,.79-.35,.65-.65,.96-.96s2.36-1,2.49-2.14-.44-1.22-.57-1.88,.31-2.88-.52-3.71Z" style="isolation:isolate; opacity:.2;"></path><path d="M58.78,342.74c.36,.09,.73,.09,1.09,0,.52,0,2.23,.48,1.53,1.44s-1.79-1.09-2.71-.57c.52,0,.48,1,.22,1.53-.26,.52-.57,1.18-.22,1.66,.7-.31,1.4,.35,2.18,.52,.79,.17,1.96-.57,2.97-.39v-1.13c0-.39,.74-.31,1.09-.57,.35-.26,.79-.57,1.13-.31,.35,.26,0-.87,0-1.27-.34-.3-.65-.64-.92-1-.22-.39,0-1,.26-1.13s.83,0,1.18,0c.29-.18,.45-.49,.44-.83-.02-.33-.02-.67,0-1h-.83c.08,.36-.13,.72-.48,.83-.34,.09-.7,.09-1.05,0,.13-1.02,0-2.06-.39-3.01h-1.09c0,.44-.48,.7-.92,.7-.41-.09-.78-.29-1.09-.57-.22-.22-.48-.44-.79-.35-.31,.09-.57,.57-.52,1,0,1.57-.65,1.18-1.31,2.05-.58,.73-.48,1.79,.22,2.4Z" style="isolation:isolate; opacity:.1;"></path><path d="M59.52,357.84c-.87,.15-1.77,.03-2.57-.35-.35-.22-.79-.48-1.18-.26-.35,.23-.52,.64-.44,1.05,0,.35,.39,.7,.52,1.09,.5,1.02,.5,2.21,0,3.23-1.72,.33-3.49-.08-4.89-1.13-.14-.15-.28-.31-.39-.48-.31-.7,.65-1.48,.48-2.18-.17-.7-1.53-1.22-1.09-1.88,.44-.65,.83-.26,1.22-.44,.45-.23,.64-.78,.41-1.23l-.02-.04c-1.05-.49-2.29-.14-2.92,.83-.74,0-.96-1.09-1-1.79-.04-.7-.52-1.75-1.27-1.48-.26,.12-.45,.37-.48,.65-.57,1.66,.79,3.23,2.01,4.36,.33,.24,.54,.6,.61,1,0,.44-.26,.92-.7,.83l1.53,1.7c.12,.16,.2,.36,.22,.57,.03,.13,.03,.26,0,.39-.42,.56-.82,1.14-1.18,1.75-1.45-2.75-2.51-5.69-3.14-8.73-.6-2.77-.88-5.59-.83-8.42,.24-.37,.57-.67,.96-.87,.48,0,1.05,0,1.48-.26,1.09-.31,1.57-1.7,2.66-2.14,.88-.3,1.86-.02,2.44,.7,.56,.76,.75,1.74,.52,2.66-.27,.69-.36,1.44-.26,2.18,.44,1.27,2.01,1.4,3.32,1.35-.14,.81,.27,1.61,1,1.96,.69,.22,1.43-.16,1.65-.84,.03-.08,.04-.16,.05-.25,.83,0,1.88,.52,1.88,1.4-.15,.54-.5,1-.96,1.31-.35,.44-.65,1.09-.31,1.53,.35,.44,1.53,0,1.83,.74s-.61,1.4-1.18,1.48Z" style="isolation:isolate; opacity:.1;"></path><path d="M87.97,382.89h-1.13c-.24-.7-.16-1.46,.22-2.1,.48-.7,1.35-1.18,1.75-1.96,.18-.53,.41-1.04,.7-1.53,.74-1.18,2.49-1.09,3.88-.87-.35-.66-.1-1.48,.56-1.83h0c.69-.27,1.44-.39,2.18-.35,.72,.07,1.45-.15,2.01-.61,0-.22,.35-.52,.61-.61h.61l3.93,.48c0-.96-1.05-1.48-1.96-1.57-.92-.09-2.01,0-2.44-.96-1.04,1.68-3.08,2.45-4.98,1.88-.11,.05-.24,.05-.35,0-.39-.52,.96-1.18,.52-1.61l-1.88-.74c-.26,0-.57-.22-.7-.48s0-.96,.39-1.44c.39-.48-.22-1.92-.48-2.88-.26-.96,0-2.36,1.09-2.36h.65c.17,0,.44-.7,.52-1.09,.26-1.18,1.44-1.88,2.44-2.57,.3-.24,.57-.5,.83-.79,.94-.89,1.5-2.11,1.57-3.4-.85,.52-1.58,1.22-2.14,2.05-.7,.79-1.75,1.44-2.66,.96,.17,1.27-.58,2.47-1.79,2.88-1.24,.28-2.5-.39-2.97-1.57-.23-.34-.23-.79,0-1.13,.36-.11,.74-.11,1.09,0,1.16,.08,2.27-.49,2.88-1.48-1.36,.02-2.63-.63-3.4-1.75-.69-1.2-.33-2.73,.83-3.49h-.87c.26-1.1,1.15-1.94,2.27-2.14h1.61c.54-.1,.95-.54,1-1.09-.62-.39-.96-1.11-.87-1.83,.14-.61,.56-1.11,1.13-1.35-.32-.01-.59-.25-.65-.57,0-.45,.31-.84,.74-.96,.46-.11,.94-.11,1.4,0,1.18,.08,2.29,.61,3.1,1.48,.4,.76,.57,1.63,.48,2.49v3.4c-.15,1.12,.22,2.24,1,3.06,.53,.34,1.16,.49,1.79,.44,1.83,.01,3.65-.36,5.32-1.09,.89-.31,1.65-.93,2.14-1.75,.39-.83,.54-1.75,.44-2.66,0-1.83,.35-4.76-1.53-5.89-.55-.35-1.24-.35-1.79,0-.35,.26-.61,.65-1,.79-.39,.13-1.27-.22-1.79,0-.52,.22-.48,.57-.74,.92-.18,.38-.61,.56-1,.44-.39-.22,0-.87,0-1.35s-.74-1.88-.57-2.84c.17-.96,1.09-1.48,1.7-2.18,.58-.64,1.06-1.36,1.44-2.14,.57-.26,1.22,0,1.75,.52,.49,.43,1.17,.56,1.79,.35,.48,.61-.26,1.75,.44,2.23h.31c.09,.24,.09,.5,0,.74,0,.87,.44,1.92,1.31,2.18h.35s0,0,0-.26c.2-1.15-.07-2.32-.74-3.27-.12-.21-.22-.43-.31-.65-.06-.21-.06-.44,0-.65,.05-.26,.14-.51,.26-.74-.02-.14-.02-.29,0-.44,.31-.26,.74,0,1.09,0,.34-.07,.67-.2,.96-.39,.44-.2,.95-.2,1.4,0,.31,1.05,.61,2.14,.87,3.23,4.4,19.19-7.48,38.35-26.62,42.95Z" style="isolation:isolate; opacity:.2;"></path><path d="M82.65,371.59c-.15,.72-.15,1.46,0,2.18-.84,.51-1.84,.67-2.79,.44-.7,1.87,.13,3.96,1.92,4.84-.59,.48-1.38,.63-2.09,.39-.68-.3-1.3-.71-1.83-1.22l-4.36-3.36c-.7,.26-.26,1.35,.44,1.7,.7,.35,1.53,.39,1.88,1.05,.35,.65,0,1.96,.39,2.66,.36,.25,.74,.47,1.13,.65,.65,.5,.95,1.34,.74,2.14v.57c-5.5-.26-10.85-1.83-15.62-4.58h0c.02-.28,.02-.55,0-.83,0-1.31,1.22-2.18,2.23-2.97,1.12-.66,1.84-1.84,1.92-3.14-1.7,.44-2.36,2.58-3.8,3.49-.38,.24-.79,.43-1.22,.57-.72,.37-1.41,.81-2.05,1.31-3.54-2.4-6.6-5.43-9.03-8.95,.71-.94,1.05-2.1,.96-3.27,.39-.48,1,.39,1.57,.44s1-.83,1.66-.87c.65-.04,.92,1.88,1.92,2.23,1,.35,1.31-.57,2.01-.65,.7-.09,1.53,.57,2.36,.31,2.4-.74,.61-3.36,.96-4.84,.22-.7,1.09-.83,1.66-1.18,.84-.57,1.34-1.52,1.35-2.53-.02-.98-.19-1.95-.48-2.88-.38-.9-.29-1.92,.22-2.75,.92-1,2.71-.35,3.97-1,1.27-.65,1.27-1.88,2.18-2.58,.83-.58,1.83-.87,2.84-.83,.26-.04,.53-.04,.79,0,.48,.26,.39,1,.31,1.48-.31,1.49-.76,2.96-1.35,4.36,1.13,.52,2.71,1,3.54,0,.15-.27,.34-.53,.57-.74,.47-.24,1.02-.24,1.48,0,.39,.87,.83,1.7,1.27,2.49-2.25-.14-4.32,1.21-5.11,3.32-.05,.31-.17,.61-.35,.87-.31,.35-.76,.55-1.22,.52-1.44-.19-2.83-.65-4.1-1.35-1.4-.44-3.36,0-3.71,1.22,1.13-.39,2.1,.79,3.19,1.22,.64,.21,1.3,.33,1.96,.35,1.63,.14,3.22,.56,4.71,1.22,1.12-.45,1.88-1.5,1.96-2.71,1.07,1.5,2.78,2.41,4.63,2.44-.43,1.42-.43,2.94,0,4.36,.52,1.05,1.57,2.01,1.53,3.19-.55,.19-.97,.65-1.09,1.22Z" style="isolation:isolate; opacity:.2;"></path></g><g><path d="M364.56,90.2c1.08-3.3,2.55-6.45,4.4-9.39,.83-1.35,1.73-2.64,2.71-3.88,2.52-3.27,5.5-6.16,8.83-8.59h0c.65-.47,1.28-.91,1.95-1.34,1.4-.94,2.87-1.78,4.39-2.52,.95-.5,1.93-.96,2.94-1.36,1.44-.61,2.9-1.13,4.4-1.58,1.99-.58,4.02-1.03,6.07-1.33h0c2.54-.36,5.11-.51,7.68-.45,7.59,.14,15.02,2.25,21.55,6.12h.06c1.89,1.1,3.68,2.35,5.37,3.74,.8,.64,1.56,1.3,2.31,1.99,.75,.69,1.51,1.46,2.23,2.23,.5,.52,.99,1.08,1.48,1.68,.62,.73,1.22,1.48,1.78,2.28,1.24,1.64,2.36,3.37,3.36,5.18,.26,.5,.54,1.01,.77,1.51,.83,1.65,1.54,3.35,2.15,5.09,.25,.7,.48,1.4,.68,2.11,.95,3.28,1.51,6.66,1.68,10.07,.07,1.2,.1,2.39,.06,3.6,0,.61,0,1.22-.08,1.81-.07,.96-.15,1.91-.27,2.85-.25,1.92-.63,3.81-1.12,5.68-.3,1.22-.68,2.42-1.12,3.59-.48,1.41-1.04,2.8-1.68,4.14-1.16,2.45-2.55,4.78-4.15,6.96-.92,1.31-1.93,2.55-3.01,3.73-1.24,1.38-2.56,2.67-3.96,3.88-1.46,1.26-3.01,2.42-4.61,3.49-2.03,1.35-4.17,2.52-6.4,3.51-1.67,.75-3.39,1.4-5.14,1.93h0c-1.38,.42-2.78,.78-4.2,1.06h-.05c-8.91,1.79-18.16,.8-26.5-2.84h0c-1.17-.5-2.33-1.07-3.44-1.68-.79-.43-1.58-.89-2.33-1.36-.95-.58-1.84-1.2-2.73-1.85-.45-.34-.91-.68-1.35-1.04-1.61-1.26-3.12-2.64-4.53-4.12-4.78-4.99-8.33-11.02-10.37-17.62-1.02-3.24-1.65-6.59-1.9-9.98-.08-1.41-.13-2.85-.09-4.3,.03-1.36,.13-2.71,.3-4.05,.3-3.05,.94-6.06,1.91-8.97Z" style="fill:#113A9A;"></path><path d="M364.56,90.2c1.08-3.3,2.55-6.45,4.4-9.39,.83-1.35,1.73-2.64,2.71-3.88,2.52-3.27,5.5-6.16,8.83-8.59h0c.65-.47,1.28-.91,1.95-1.34,1.4-.94,2.87-1.78,4.39-2.52,.95-.5,1.93-.96,2.94-1.36,1.44-.61,2.9-1.13,4.4-1.58,1.99-.58,4.02-1.03,6.07-1.33h0c2.54-.36,5.11-.51,7.68-.45,7.59,.14,15.02,2.25,21.55,6.12h.06c1.89,1.1,3.68,2.35,5.37,3.74,.8,.64,1.56,1.3,2.31,1.99,.75,.69,1.51,1.46,2.23,2.23,.5,.52,.99,1.08,1.48,1.68,.62,.73,1.22,1.48,1.78,2.28,1.24,1.64,2.36,3.37,3.36,5.18,.26,.5,.54,1.01,.77,1.51,.83,1.65,1.54,3.35,2.15,5.09,.25,.7,.48,1.4,.68,2.11,.95,3.28,1.51,6.66,1.68,10.07,.07,1.2,.1,2.39,.06,3.6,0,.61,0,1.22-.08,1.81-.07,.96-.15,1.91-.27,2.85-.25,1.92-.63,3.81-1.12,5.68-.3,1.22-.68,2.42-1.12,3.59-.48,1.41-1.04,2.8-1.68,4.14-1.16,2.45-2.55,4.78-4.15,6.96-.92,1.31-1.93,2.55-3.01,3.73-1.24,1.38-2.56,2.67-3.96,3.88-1.46,1.26-3.01,2.42-4.61,3.49-2.03,1.35-4.17,2.52-6.4,3.51-1.67,.75-3.39,1.4-5.14,1.93h0c-1.38,.42-2.78,.78-4.2,1.06h-.05c-8.91,1.79-18.16,.8-26.5-2.84h0c-1.17-.5-2.33-1.07-3.44-1.68-.79-.43-1.58-.89-2.33-1.36-.95-.58-1.84-1.2-2.73-1.85-.45-.34-.91-.68-1.35-1.04-1.61-1.26-3.12-2.64-4.53-4.12-4.78-4.99-8.33-11.02-10.37-17.62-1.02-3.24-1.65-6.59-1.9-9.98-.08-1.41-.13-2.85-.09-4.3,.03-1.36,.13-2.71,.3-4.05,.3-3.05,.94-6.06,1.91-8.97Z" style="fill:#fff; isolation:isolate; opacity:.2;"></path><path d="M364.56,90.2c1.41,0,2.81,.16,4.2,.44,1.97,.42,3.88,1.16,5.87,1.53,2.52,.45,5.13,.32,7.67,.6,2.54,.29,5.21,1.09,6.91,3.04-6.22,.31-12.41,1.02-18.54,2.11-2.68,.48-5.36,.97-8.04,1.22,.31-3.04,.96-6.04,1.94-8.94Z" style="isolation:isolate; opacity:.2;"></path><path d="M434.72,107.59c3.79-.54,7.6-.82,11.43-.84,1.73,.03,3.45,.16,5.17,.39-.07,.96-.15,1.91-.27,2.85h-.43c-5.41,.27-10.81-.55-15.9-2.4Z" style="isolation:isolate; opacity:.2;"></path><path d="M413.56,93.49c.7-.19,1.43-.22,2.14-.1,2.88,.2,5.77,.16,8.64-.14,2.52-.2,4.98-.48,7.46-.74,1.93-.14,3.84-.47,5.71-.99,1.01-.38,2.05-.69,3.11-.92,1.32-.12,2.65-.04,3.95,.24,1.68,.29,3.36,.55,5.03,.84,.95,3.28,1.51,6.66,1.68,10.07-1.15-.03-2.29-.16-3.41-.41-1.91-.44-3.75-1.26-5.72-1.48-1.75-.18-3.52,.1-5.27,0-1.86-.18-3.69-.53-5.49-1.04-6.28-1.43-12.9-1.43-18.94-3.62-.13-.77,.34-1.51,1.1-1.7Z" style="isolation:isolate; opacity:.2;"></path><path d="M380.5,68.28c.65-.47,1.28-.91,1.95-1.34,1.4-.94,2.87-1.78,4.39-2.52,.95-.5,1.93-.96,2.94-1.36,.2,0,.39,.1,.6,.15,9.96,2.67,20.11,4.6,30.36,5.76,5.5,.63,11.2,1.09,16.47,2.63,.77,.72,1.51,1.46,2.23,2.23-5.61-1.4-11.33-2.34-17.09-2.8-4.91-.32-9.85-.08-14.73-.55-4.42-.41-8.82-1.41-13.25-1.17-.98,.06-1.96,.16-2.95,.22-3.31,.11-6.61-.22-9.83-.99-.36-.07-.73-.15-1.08-.25Z" style="isolation:isolate; opacity:.2;"></path><path d="M407.64,75.2c4.36-.9,8.9-.48,13.34-.06,5.1,.59,10.23,.8,15.36,.63,1.53-.08,3.04-.23,4.57-.28,.62,.73,1.22,1.49,1.78,2.28,1.24,1.64,2.36,3.37,3.36,5.18,.26,.5,.54,1.01,.77,1.51-.46-.06-.91-.11-1.32-.14-2.62-.21-5.23-.4-7.82-.8-1.98-.3-3.94-.7-5.87-1.23-1.55-.4-3.07-.92-4.54-1.55-1.24-.54-2.42-1.17-3.66-1.68-1.46-.58-2.94-1.09-4.46-1.51-3.77-1.13-7.59-2.26-11.52-2.36Z" style="isolation:isolate; opacity:.2;"></path><path d="M431.11,79.29c1.99-.46,4.07,0,6.06-.4,.76-.15,1.48-.42,2.23-.61,1.08-.29,2.18-.47,3.3-.53,1.24,1.64,2.36,3.37,3.36,5.18-2.51-.21-5.01-.56-7.48-1.04-1.37-.27-2.74-.57-4.1-.84-.78-.18-3.5-.38-3.95-.93-.29-.31,.21-.7,.6-.82Z" style="isolation:isolate; opacity:.2;"></path><path d="M371.66,76.88c1.34-1.73,2.81-3.37,4.4-4.88,2.21,.21,4.39,.62,6.53,1.22,1.71,.5,3.47,.84,5.24,1.03,2.32,.13,4.63-.35,6.96-.4,2.32-.05,4.83,.38,6.45,2.06-3,.18-6.02,.39-9.02,.56-5.23,.3-10.45,.51-15.7,.49-1.62,0-3.24-.03-4.86-.08Z" style="isolation:isolate; opacity:.2;"></path><path d="M383.73,67.27c-.32-.1-.77-.22-1.28-.34,1.4-.94,2.87-1.78,4.39-2.52,2.2,.57,4.45,.96,6.71,1.19,3.76,.39,7.8,.39,10.91,2.61l-4.87-.53c-3.24-.48-6.52-.58-9.77-.29-1.2,.22-2.42,.34-3.64,.36-.83-.07-1.65-.23-2.44-.49Z" style="isolation:isolate; opacity:.2;"></path><path d="M394.17,61.48c1.99-.58,4.02-1.03,6.07-1.33h0c2.54-.36,5.11-.51,7.68-.45,7.6,.16,15.03,2.29,21.55,6.18h.06c1.89,1.1,3.68,2.35,5.37,3.74-2.97,0-6.93-1.16-8.21-1.38-3.36-.58-6.77-1.17-10.14-1.8-7.49-1.41-14.99-3.09-22.37-4.96Z" style="isolation:isolate; opacity:.2;"></path><path d="M400.26,60.13c2.54-.36,5.11-.51,7.68-.45,7.59,.17,15.01,2.3,21.54,6.19-.58-.16-1.19-.24-1.8-.22-.58,0-1.16,.19-1.75,.28-.75,.04-1.5,.03-2.24-.04-2.83-.19-5.63-.6-8.39-1.24-2.52-.64-4.85-1.68-7.27-2.52-2.54-.86-5.13-1.53-7.77-2Z" style="isolation:isolate; opacity:.2;"></path><path d="M379.19,114.39c.32-.53,1.02-.65,1.61-.84,2.47-.61,4.53-2.26,6.84-3.31,3.7-1.68,7.88-1.82,11.93-1.94,2.26-.11,4.53-.08,6.8,.09,1.98,.24,3.94,.59,5.87,1.07,4.2,.98,8.31,2.16,12.42,3.36,7.55,2.21,15.1,4.54,22.85,6.02,.44,.1,.88,.22,1.31,.36-.48,1.41-1.04,2.8-1.68,4.14-2.52,.09-5.26-.41-7.55-.47-6.88-.2-13.67,1.53-20.26,3.53-1.9,.67-3.87,1.11-5.87,1.32-2.71,.15-5.37-.61-7.96-1.37-3.02-.91-6.04-1.81-9.04-2.74-1.59-.46-3.13-1.05-4.62-1.76-1.26-.68-2.42-1.52-3.65-2.27-1.98-1.17-4.13-2.04-6.38-2.56-.72-.11-1.41-.36-2.02-.75-.64-.4-.9-1.21-.6-1.9Z" style="isolation:isolate; opacity:.2;"></path><path d="M420.05,122.54c-2.74,.58-5.54,.77-8.33,.56-3.61,.04-7.21-.31-10.74-1.05-2.69-.74-5.31-1.71-7.84-2.89-1.54-.66-3.16-1.4-4.04-2.82,8.34-5.03,18.95-4.25,28.44-1.99,5.82,1.38,11.52,3.24,17.21,5.1-.51-.17-3.05,1.22-3.73,1.38-1.04,.18-2.09,.18-3.13,0-2.84-.17-5.17,1-7.84,1.69Z" style="isolation:isolate; opacity:.2;"></path><path d="M364.27,117.42c1.02,.06,2.03,.19,3.03,.39,1.75,.36,3.81,1.43,3.67,3.21,4.2-.06,8.73-.04,12.21,2.33-1.63,.39-3.26,.79-4.88,1.21l41.8,6.62c1.22,.26,2.47,.35,3.71,.27,2.63-.24,4.9-1.87,7.46-2.52,3.15-.76,8.04-.08,11.68,1.4-.92,1.31-1.93,2.55-3.01,3.73-1.24,1.38-2.56,2.67-3.96,3.88-1.46,1.26-3.01,2.42-4.61,3.49-8.99-.76-17.79-3.22-26.5-5.67,3.24-.29,6.46-.57,9.7-.84,1.78-.17,3.69-.36,5.03-1.54-5.25-.94-10.53-1.65-15.83-2.14-3-.27-6.03-.47-9.05-.66-5.19-.32-10.37-.65-15.56-.99-.48-.08-.97-.03-1.42,.16-.46,.23-.64,.78-.42,1.23,.22,.24,.52,.38,.84,.39l4.84,1.11c1.48,.34,3.36,1.32,2.9,2.74-2.75,0-5.53-.09-8.3-.15-.97,0-1.96,0-2.96-.08-4.78-4.98-8.33-11-10.37-17.59Z" style="isolation:isolate; opacity:.2;"></path><path d="M379.17,139.15c2.32-.35,4.67-.43,7.01-.26,5.23,.33,10.37,1.53,15.49,2.58,1.37,.34,2.78,.5,4.2,.5,1.58-.05,3.13-.52,4.72-.53,2.48,0,4.81,1.01,7.12,1.85,1.38,.5,4.68,.88,7.27,1.68-1.67,.75-3.39,1.4-5.14,1.93h0s-.09-.03-.13-.05c-3.19-1.16-6.51-1.92-9.88-2.25-7.32-1.04-14.71-2.06-22.07-1.52-.72,.04-1.43,.15-2.12,.33-.79-.43-1.58-.89-2.33-1.36-.95-.58-1.84-1.2-2.73-1.85-.49-.35-.95-.69-1.39-1.05Z" style="isolation:isolate; opacity:.2;"></path><path d="M426.89,135.57c3.93-2.04,8.57-1.97,13.05-1.49-1.24,1.38-2.56,2.67-3.96,3.88-3.11-.43-6.17-1.23-9.09-2.39Z" style="isolation:isolate; opacity:.2;"></path><path d="M389.04,145.08c6.54-1.14,13.28-.37,19.71,1.19,2.29,.44,4.56,1,6.79,1.68-8.91,1.79-18.16,.8-26.5-2.84v-.03Z" style="isolation:isolate; opacity:.2;"></path><path d="M380.52,140.19c.44-.08,.89-.12,1.33-.16,3.08-.27,6.26-.53,9.23,.28-2.12-.53-5.03,.66-7.85,1.73-.93-.58-1.82-1.2-2.71-1.85Z" style="isolation:isolate; opacity:.2;"></path><path d="M362.58,99.09c-.17,1.34-.27,2.7-.3,4.05,0,1.44,0,2.89,.09,4.3,1.05,.18,2.13,.21,3.19,.09,4.99-.36,9.97-.71,14.96-1.06-1.6-1.75-4.3-1.83-6.65-1.58-2.36,.25-4.88,.7-7.01-.39,3.53-2.39,7.72-3.6,11.97-3.47,2.92,.09,5.81,.84,8.69,.54,2.52-.24,5.03-1.28,7.55-1,1.22,.2,2.42,.5,3.59,.91,12.74,3.68,27.05-3.36,39.43,1.42-7.66,.87-15.32,1.71-22.97,2.52,3.21,2.9,8.03,2.72,12.31,3.26,4.73,.59,9.26,2.22,13.28,4.77,1.34,1.02,2.84,1.79,4.45,2.29,1.25,.21,2.52,.21,3.77,0,.34,0,.67-.08,1.01-.11,.5-1.87,.87-3.76,1.12-5.68,.12-.94,.2-1.9,.27-2.85,.05-.6,.07-1.2,.08-1.81,.04-1.21,0-2.4-.06-3.6-.17-3.41-.73-6.79-1.68-10.07-.2-.72-.43-1.42-.68-2.11-3.08,0-6.2,.37-9.23-.19-1.26-.23-2.52-.61-3.74-.84-1.41-.21-2.83-.32-4.25-.31l-28.63-.65c-3.97-.09-7.91-.18-11.85-.64,8.79-2.18,17.85-3,26.89-2.44,1.41,.08,2.92,.18,4.13-.55-4.3-3.13-10.23-1.93-15.52-2.52-2.38-.24-4.72-.89-7.12-.84-2.2,.05-4.35,.64-6.54,.9-2.36,.22-4.73,.25-7.1,.07-5.66-.24-11.34-.51-17.03-.76-1.87,2.96-3.37,6.14-4.46,9.46-.98,2.88-1.65,5.87-1.97,8.89Zm21.34-14.57c1.79-.48,3.63-.74,5.48-.77l.65,.65c-2.97,1.24-6.24,1.53-9.38,.84,1.07-.27,2.13-.5,3.25-.72Z" style="isolation:isolate; opacity:.2;"></path></g><g><path d="M73.74,77.57c15.99-3.57,31.85,6.51,35.42,22.5,3.57,15.99-6.51,31.85-22.5,35.42-15.99,3.57-31.84-6.5-35.42-22.49-3.57-15.99,6.49-31.86,22.49-35.43h.01Z" style="fill:#113A9A;"></path><path d="M102.1,97.91c1.69,.02,3.08-1.34,3.1-3.03,.02-1.69-1.34-3.08-3.03-3.1-1.69-.02-3.08,1.34-3.1,3.03,0,.02,0,.04,0,.07,0,1.67,1.36,3.03,3.03,3.03Z" style="isolation:isolate; opacity:.2;"></path><path d="M92.13,83.13c.18,1.68,1.69,2.9,3.37,2.73,1.44-.15,2.58-1.29,2.73-2.73h0c-1.32-1-2.71-1.89-4.18-2.66-1.1,.44-1.85,1.48-1.92,2.66Z" style="isolation:isolate; opacity:.2;"></path><path d="M59.32,111.42c-2.59,0-4.68,2.1-4.68,4.68s2.1,4.68,4.68,4.68,4.68-2.1,4.68-4.68c-.02-2.58-2.1-4.66-4.68-4.68Z" style="isolation:isolate; opacity:.2;"></path><path d="M108.46,97.61c-.47-1.47-1.04-2.9-1.72-4.28-.02,.2-.02,.4,0,.61,0,1.42,.62,2.77,1.72,3.67Z" style="isolation:isolate; opacity:.2;"></path><path d="M57.23,97.21c-.02-2.06-1.39-3.87-3.37-4.45-1.46,2.78-2.47,5.77-3,8.86,.52,.19,1.06,.29,1.62,.3,2.6,.02,4.73-2.08,4.75-4.68v-.03Z" style="isolation:isolate; opacity:.2;"></path><path d="M105.19,110.31c0,2.09,1.36,3.93,3.37,4.51,.9-2.96,1.33-6.04,1.28-9.13-2.55,0-4.63,2.06-4.65,4.61Z" style="isolation:isolate; opacity:.2;"></path><path d="M76.16,90.87c-.02-2.59-2.13-4.67-4.72-4.65-2.59,.02-4.67,2.13-4.65,4.72,.02,2.52,2.03,4.57,4.55,4.64,2.6,.06,4.76-2.01,4.82-4.61,0-.03,0-.07,0-.1Z" style="isolation:isolate; opacity:.2;"></path><path d="M91.72,115.26c1.67,0,3.03,1.36,3.03,3.03s-1.36,3.03-3.03,3.03-3.03-1.36-3.03-3.03,1.36-3.03,3.03-3.03Z" style="isolation:isolate; opacity:.2;"></path><path d="M103.11,119.84c0,1.32,.86,2.48,2.12,2.86,1.08-1.66,1.99-3.42,2.73-5.25-1.3-1.02-3.19-.8-4.21,.5-.42,.54-.65,1.2-.64,1.89Z" style="isolation:isolate; opacity:.2;"></path><path d="M95.16,131.26c-.02,.28-.02,.56,0,.84,3.3-1.95,6.19-4.51,8.52-7.54-3.57-1.04-7.31,1-8.36,4.57-.21,.7-.29,1.43-.27,2.16l.1-.03Z" style="isolation:isolate; opacity:.2;"></path><path d="M53.76,108.83c0-2.29-1.14-4.43-3.03-5.73-.38,3.31-.21,6.65,.51,9.9,0,.3,0,.61,.24,.91,1.46-1.28,2.3-3.14,2.29-5.09Z" style="isolation:isolate; opacity:.2;"></path><path d="M67.64,80.06v-.37c-4.98,2.34-9.21,6.01-12.23,10.61,.62,.05,1.24,.05,1.85,0,5.67-.02,10.28-4.57,10.37-10.24Z" style="isolation:isolate; opacity:.2;"></path><path d="M81.75,81.58c2.56-.02,4.9-1.44,6.1-3.7-4.08-1.07-8.34-1.26-12.5-.57,1.03,2.62,3.58,4.33,6.4,4.28Z" style="isolation:isolate; opacity:.2;"></path><path d="M80.2,128.23c-1.69-.02-3.08,1.34-3.1,3.03-.02,1.69,1.34,3.08,3.03,3.1,1.69,.02,3.08-1.34,3.1-3.03,0-.02,0-.04,0-.07,0-1.67-1.36-3.03-3.03-3.03Z" style="isolation:isolate; opacity:.2;"></path><path d="M73.64,133.78c-.89,0-1.73,.39-2.29,1.08,1.69,.51,3.41,.88,5.15,1.11-.35-1.29-1.52-2.19-2.86-2.19Z" style="isolation:isolate; opacity:.2;"></path><path d="M61.61,126.61c-.85,.02-1.66,.4-2.22,1.04,1.41,1.42,2.97,2.69,4.65,3.77,.4-.5,.62-1.11,.64-1.75,0-1.69-1.37-3.06-3.06-3.06h0Z" style="isolation:isolate; opacity:.2;"></path><path d="M96.54,101.35c.39,0,.71-.32,.71-.71,0-.39-.32-.71-.71-.71-.39,0-.71,.32-.71,.71h0c.02,.38,.32,.69,.71,.71Z" style="isolation:isolate; opacity:.2;"></path><path d="M100.65,89.97c.39,0,.71-.32,.71-.71s-.32-.71-.71-.71c-.37,0-.67,.3-.67,.67v.03c0,.38,.3,.69,.67,.71Z" style="isolation:isolate; opacity:.2;"></path><path d="M106,101.35c.39,0,.71-.32,.71-.71,0-.39-.32-.71-.71-.71-.39,0-.71,.32-.71,.71h0c0,.39,.32,.71,.71,.71Z" style="isolation:isolate; opacity:.2;"></path><path d="M81.65,83.87c.37,0,.67-.3,.67-.67h0c.02-.37-.27-.69-.64-.71h-.03c-.39,0-.71,.32-.71,.71,0,.37,.3,.67,.67,.67h.03Z" style="isolation:isolate; opacity:.2;"></path><path d="M72.79,96.53c-.37,0-.67,.3-.67,.67h0c-.02,.37,.27,.69,.64,.71h.03c.39,0,.71-.32,.71-.71,0-.37-.3-.67-.67-.67h-.03Z" style="isolation:isolate; opacity:.2;"></path><path d="M68.04,116.1c0-.37-.3-.67-.67-.67h-.03c-.37,0-.67,.3-.67,.67h0c-.02,.37,.27,.69,.64,.71h.03c.39,0,.71-.32,.71-.71Z" style="isolation:isolate; opacity:.2;"></path><path d="M56.53,108.15c0,.39,.32,.71,.71,.71s.71-.32,.71-.71-.32-.71-.71-.71h0c-.39,0-.71,.32-.71,.71Z" style="isolation:isolate; opacity:.2;"></path><path d="M87.07,111.49c0,.39,.32,.71,.71,.71s.71-.32,.71-.71-.32-.71-.71-.71h0c-.39,0-.71,.32-.71,.71Z" style="isolation:isolate; opacity:.2;"></path><path d="M87.07,102.23c.39,0,.71,.32,.71,.71s-.32,.71-.71,.71-.71-.32-.71-.71,.32-.71,.71-.71Z" style="isolation:isolate; opacity:.2;"></path><path d="M93.37,124.32c-.37,0-.67,.3-.67,.67v.03c0,.37,.3,.67,.67,.67h0c.37,.02,.69-.27,.71-.64v-.03c0-.39-.32-.71-.71-.71Z" style="isolation:isolate; opacity:.2;"></path><path d="M62.32,92.53c.39,0,.71-.32,.71-.71,0-.39-.32-.7-.71-.71-.39,0-.71,.31-.71,.71,0,.39,.31,.71,.71,.71h0Z" style="isolation:isolate; opacity:.2;"></path><path d="M77.14,91.55c.37,.02,.69-.27,.71-.64v-.03c0-.39-.32-.71-.71-.71-.37,0-.67,.3-.67,.67v.03c0,.37,.3,.67,.67,.67h0Z" style="isolation:isolate; opacity:.2;"></path><path d="M76.46,126.61c-.39-.02-.72,.28-.74,.67-.02,.39,.28,.72,.67,.74,.39,.02,.72-.28,.74-.67v-.03c0-.38-.3-.69-.67-.71Z" style="isolation:isolate; opacity:.2;"></path><path d="M74.81,118.29c-.37-.02-.69,.27-.71,.64v.03c0,.39,.32,.71,.71,.71,.37,0,.67-.3,.67-.67v-.03c0-.37-.3-.67-.67-.67h0Z" style="isolation:isolate; opacity:.2;"></path><path d="M57.91,122.2c-.37,0-.67,.3-.67,.67v.03c0,.37,.3,.67,.67,.67h0c.37,.02,.69-.27,.71-.64v-.03c0-.39-.32-.71-.71-.71Z" style="isolation:isolate; opacity:.2;"></path><path d="M84.85,133.61c-.39,0-.71,.32-.71,.71,0,.39,.32,.71,.71,.71s.71-.32,.71-.71h0c0-.39-.32-.71-.71-.71Z" style="isolation:isolate; opacity:.2;"></path><path d="M88.69,92.46c.89,0,1.62-.72,1.62-1.62s-.72-1.62-1.62-1.62c-.89,0-1.62,.72-1.62,1.62v.03c0,.87,.71,1.58,1.58,1.58h.03Z" style="isolation:isolate; opacity:.2;"></path><path d="M88.69,84.78c.89,0,1.62-.72,1.62-1.62,0-.89-.72-1.62-1.62-1.62-.89,0-1.62,.72-1.62,1.62v.03c0,.87,.71,1.58,1.58,1.58h.03Z" style="isolation:isolate; opacity:.2;"></path><path d="M71.35,84.78c.93,0,1.68-.75,1.68-1.68s-.75-1.68-1.68-1.68-1.68,.75-1.68,1.68,.75,1.68,1.68,1.68Z" style="isolation:isolate; opacity:.2;"></path><path d="M84.85,126.61c0-.89-.72-1.62-1.62-1.62s-1.62,.72-1.62,1.62,.72,1.62,1.62,1.62c.87,.02,1.6-.67,1.62-1.55,0-.02,0-.05,0-.07Z" style="isolation:isolate; opacity:.2;"></path><path d="M68.04,128.06c-.89,0-1.62,.72-1.62,1.62s.72,1.62,1.62,1.62c.89,0,1.62-.72,1.62-1.62s-.72-1.62-1.62-1.62h0Z" style="isolation:isolate; opacity:.2;"></path><path d="M62.32,121.96c.89,0,1.62,.72,1.62,1.62s-.72,1.62-1.62,1.62-1.62-.72-1.62-1.62,.72-1.62,1.62-1.62Z" style="isolation:isolate; opacity:.2;"></path><path d="M88.69,129.67c-.89-.02-1.63,.69-1.65,1.58-.02,.89,.69,1.63,1.58,1.65s1.63-.69,1.65-1.58c0-.02,0-.04,0-.07,0-.87-.71-1.58-1.58-1.58h0Z" style="isolation:isolate; opacity:.2;"></path><path d="M77.85,109.77c.89,0,1.62-.72,1.62-1.62s-.72-1.62-1.62-1.62-1.62,.72-1.62,1.62c.02,.89,.73,1.6,1.62,1.62Z" style="isolation:isolate; opacity:.2;"></path><path d="M100.65,114.69c.89,.02,1.63-.69,1.65-1.58,.02-.89-.69-1.63-1.58-1.65-.89-.02-1.63,.69-1.65,1.58,0,.02,0,.04,0,.07,0,.87,.71,1.58,1.58,1.58h0Z" style="isolation:isolate; opacity:.2;"></path><path d="M63.94,105.69c-.89-.02-1.63,.69-1.65,1.58-.02,.89,.69,1.63,1.58,1.65,.89,.02,1.63-.69,1.65-1.58,0-.02,0-.04,0-.07,0-.87-.71-1.58-1.58-1.58h0Z" style="isolation:isolate; opacity:.2;"></path><path d="M57.23,101.89c.89,0,1.62,.72,1.62,1.62s-.72,1.62-1.62,1.62-1.62-.72-1.62-1.62,.72-1.62,1.62-1.62Z" style="isolation:isolate; opacity:.2;"></path></g></g><g id="freepik--Character_2--inject-2"><g><g><circle cx="276.49" cy="172.58" r="9.5" style="fill:#113A9A;"></circle><path d="M285.78,170.58c-.21,.99-.58,1.96-1.12,2.88-2.69,4.51-8.52,5.99-13.03,3.3-2.37-1.41-3.89-3.69-4.42-6.19-.14,.65-.22,1.32-.22,2.01,0,5.25,4.26,9.5,9.5,9.5s9.5-4.26,9.5-9.5c0-.69-.08-1.36-.22-2Z" style="opacity:.2;"></path></g><g><path d="M382.77,228.71c.21,1.01,12.27,29.42,11.68,35.29-1.02,10.24-9.4,27.91-9.4,27.91l-5.22-3.03s3.89-20.05,3.38-23.83c-.52-3.78-10.84-29.69-10.84-29.69l10.4-6.65Z" style="fill:#ebb376;"></path><path d="M380.15,287.34s-2.91,.28-4.5,2.21c-1.6,1.93-3.35,3.06-4.45,4.58-1.09,1.52,1.28,.91,2.49,.32,1.21-.59,2.59-1.24,2.82-.25,.24,.99-2.14,9.64-1.65,10.97,.48,1.33,1.29,.04,1.29,.04,0,0-.52,2.11,.22,2.52,.19,.11,.82,.02,1.21-.91,.86-2.1,2.45-6.58,2.45-6.58-.1,.26-1.68,5.92-1.82,6.79-.17,1.14,.31,1.75,.95,1.8,.91,.07,3.11-6.89,3.4-7.12,0,0-1.39,3.97-.61,4.86,.78,.89,1.79-1.57,2.28-3.89,.46-2.13,1.88-6.21,2.15-8.41,.32-2.71-.05-4.58-2.15-5.81-2.1-1.23-4.07-1.12-4.07-1.12Z" style="fill:#ebb376;"></path></g><g><path d="M328.3,224.33c-.88-.54-32.56,1.13-39.3-3.58-8.43-5.9-17.19-22.83-17.19-22.83l6.3-1.89s12.51,13.27,15.62,15.48c3.11,2.21,36.84,.69,36.84,.69l-2.27,12.14Z" style="fill:#ebb376;"></path><path d="M278.93,198.09s1.79-2.31,1.47-4.8c-.32-2.49,.06-4.54-.3-6.38-.36-1.84-1.54,.31-1.94,1.59-.4,1.28-.87,2.73-1.75,2.23-.89-.5-5.57-8.16-6.87-8.71-1.3-.56-.91,.91-.91,.91,0,0-1.18-1.83-1.99-1.56-.21,.07-.58,.59-.16,1.5,.94,2.06,3.12,6.29,3.12,6.29-.12-.25-3.16-5.28-3.71-5.97-.72-.91-1.48-.97-1.96-.54-.68,.61,2.89,6.98,2.87,7.35,0,0-1.94-3.73-3.12-3.77-1.18-.04-.08,2.38,1.27,4.33,1.24,1.79,3.24,5.62,4.66,7.32,1.76,2.09,3.37,3.1,5.71,2.41,2.34-.69,3.6-2.2,3.6-2.2Z" style="fill:#ebb376;"></path></g><g><path d="M381.42,415.12l-5.33-10.39s-13.89,2.53-13.15,2.58c.74,.05,9.7,12.32,9.7,12.32l7.87,1.85,.92-6.36Z" style="fill:#ebb376;"></path><g><path d="M371.61,418.83l3.14-1.61c.71-.37,1.55-.34,2.27,.01,3.08,1.55,3.97-.09,4.74-3.43,1.18-.79,2.25,.48,2.56,.81l6.74,7.34c.57,.61,.54,1.57-.07,2.14-.11,.1-.23,.19-.36,.25-3.82,1.96-5.62,2.89-10.38,5.33l-14.53,7.46c-3.96,2.03-6.83-1.54-5.39-2.74,6.51-5.39,10.59-10.22,11.77-13.52,.23-.59-.35-.65-.48-2.04Z" style="fill:#263238;"></path><path d="M368.42,424.15c.98-.53,1.9-1.17,2.75-1.89,.07-.08,.07-.2,0-.28-.04-.04-.1-.06-.16-.05-.55,.01-5.43,.19-6.05,1.4-.12,.22-.11,.48,.03,.69,.21,.4,.61,.68,1.06,.75,.84,.05,1.67-.16,2.38-.61Zm2.01-1.81c-1.05,.81-3.06,2.21-4.29,2-.32-.06-.61-.26-.77-.55-.07-.08-.07-.2-.02-.29,.35-.66,3.08-1.04,5.09-1.16Z" style="fill:#113A9A;"></path><path d="M371.14,422.29s.09-.03,.12-.06c.03-.07,.01-.16-.04-.21-.08-.16-2.99-3.56-5.02-2.21-.5,.35-.52,.68-.43,.91,.39,1.09,3.86,1.76,5.3,1.65l.08-.08Zm-4.57-2.28c1.36-.7,3.31,1.15,4.05,1.92-1.63-.02-4.25-.71-4.46-1.39-.03-.05-.1-.19,.28-.44l.14-.08Z" style="fill:#113A9A;"></path><path d="M374.23,422.97s-.09-.01-.13-.04c-1-.59-2.25-.71-3.34-.33-.13,.05-.27-.02-.32-.15s.02-.27,.15-.32c1.23-.44,2.64-.3,3.76,.37,.12,.07,.16,.22,.09,.34-.05,.08-.13,.12-.21,.12Z" style="fill:#113A9A;"></path><path d="M373.03,425.45s-.09-.01-.13-.04c-1-.59-2.25-.71-3.34-.33-.13,.05-.27-.02-.32-.15s.02-.27,.15-.32c1.23-.43,2.64-.3,3.76,.37,.12,.07,.16,.22,.09,.34-.05,.08-.13,.12-.21,.12Z" style="fill:#113A9A;"></path><path d="M371.23,427.93s-.09-.01-.13-.04c-1-.59-2.25-.71-3.34-.33-.13,.05-.27-.02-.32-.15s.02-.27,.15-.32c1.23-.43,2.64-.3,3.76,.37,.12,.07,.16,.22,.09,.34-.05,.08-.13,.12-.21,.12Z" style="fill:#113A9A;"></path></g></g><g><path d="M296.06,411.52l-.29-11.67s-13.61-3.76-12.96-3.39c.65,.36,3.38,15.31,3.38,15.31l6.28,5.09,3.59-5.33Z" style="fill:#ebb376;"></path><g><path d="M285.61,410.59l3.53-.09c.8-.02,1.55,.37,2.04,1,2.11,2.73,3.61,1.64,5.76-1.03,1.4-.2,1.82,1.41,1.95,1.84l2.88,9.54c.25,.8-.19,1.64-.99,1.89-.14,.04-.29,.07-.44,.07-4.29,.11-6.32,.15-11.66,.29l-16.33,.4c-4.45,.11-5.48-4.36-3.66-4.82,8.2-2.02,13.98-4.59,16.47-7.06,.46-.43-.03-.73,.45-2.05Z" style="fill:#263238;"></path><path d="M280.42,414c1.11-.05,2.22-.22,3.3-.51,.1-.04,.15-.15,.11-.25-.02-.05-.07-.1-.12-.12-.5-.23-4.97-2.19-6.06-1.38-.2,.14-.31,.39-.27,.63,.02,.46,.25,.88,.63,1.14,.73,.41,1.58,.58,2.41,.48Zm2.6-.76c-1.3,.27-3.71,.66-4.73-.07-.27-.2-.43-.5-.46-.83-.02-.1,.02-.21,.11-.27,.6-.44,3.23,.41,5.08,1.17Z" style="fill:#113A9A;"></path><path d="M283.68,413.5s.09,.01,.14,0c.06-.05,.08-.14,.05-.21,0-.18-1.15-4.51-3.56-4.17-.6,.1-.76,.39-.78,.63-.12,1.16,2.71,3.27,4.05,3.79l.1-.04Zm-3.12-4.04c1.53-.04,2.48,2.48,2.81,3.49-1.46-.73-3.52-2.49-3.41-3.19,0-.06,0-.22,.44-.28l.16-.02Z" style="fill:#113A9A;"></path><path d="M286.27,415.49c-.08,0-.16-.04-.21-.11-.64-.97-1.71-1.62-2.87-1.75-.14-.01-.24-.14-.22-.28,.01-.14,.14-.26,.28-.22,1.3,.14,2.51,.88,3.23,1.97,.08,.12,.04,.27-.07,.35-.04,.03-.09,.04-.14,.04Z" style="fill:#113A9A;"></path><path d="M284.12,417.2c-.08,0-.16-.04-.21-.11-.64-.97-1.71-1.62-2.87-1.75-.14-.01-.24-.14-.22-.28,.01-.14,.14-.24,.28-.22,1.3,.14,2.5,.88,3.23,1.97,.08,.12,.04,.27-.07,.35-.04,.03-.09,.04-.14,.04Z" style="fill:#113A9A;"></path><path d="M281.42,418.65c-.08,0-.16-.04-.21-.11-.64-.97-1.71-1.62-2.87-1.75-.14-.01-.24-.14-.22-.28,.01-.14,.14-.24,.28-.22,1.3,.15,2.51,.88,3.23,1.97,.08,.12,.04,.27-.07,.35-.04,.03-.09,.04-.14,.04Z" style="fill:#113A9A;"></path></g></g><path d="M375.62,281.04s.03,4.17-7.8,5.43c-9.68,1.56-45.28-11.98-45.28-11.98l45.19,1.04,7.88,5.51Z" style="fill:#263238;"></path><path d="M375.62,281.04s.03,4.17-7.8,5.43c-9.68,1.56-45.28-11.98-45.28-11.98l45.19,1.04,7.88,5.51Z" style="opacity:.3;"></path><g><path d="M360.97,270.72l-59.82,72.24c-1.97,23.07-2.5,60.72-2.5,60.72l-16.97-.52s-4.49-35.18-3.4-64.65c.09-2.35,1.07-4.56,2.14-6.65,11.93-23.35,48.43-67.67,48.43-67.67l32.11,6.53Z" style="fill:#113A9A;"></path><path d="M342.49,292.56c-2.98,3.61-5.97,7.53-9.23,11.63-1.49,1.87-3.18,3.79-4.7,5.73,.63-11.05,5.76-24.52,12.65-31.54,1.17,3.69,1.41,8.76,1.28,14.19Z" style="isolation:isolate; opacity:.2;"></path><path d="M366.02,271.78c8.56,19.03-5.74,17.25-13.63,78.87,1.62,2.31,26.24,56.52,26.24,56.52l-13.52,7.14s-23.92-34.81-33.83-51.77c-2.54-4.34-2.46-9.61-2.18-14.63,2.13-37.25,9.58-81.73,9.58-81.73l27.33,5.59Z" style="fill:#113A9A;"></path></g><g><path d="M344.84,220.61c-1.68,4.88-24.04,9.39-24.04,9.39l-5.12-18.37c.48-.4,12.86-1.91,23.6-3.17,8.36-.44,7.31,7.06,5.55,12.16Z" style="fill:#263238;"></path><path d="M352.54,209.19c6.17,.84,12.28,2.08,18.29,3.71,5.68,1.5,10.64,2.17,10.98,7.31-7.95,17.42-11.1,25.77-13.48,35.17-1.98,7.78,6.73,15.82,7.3,25.66-19.87-7.28-34.28,6.17-55.69-7.39,2.67-3.84,7.25-12.74,7.69-15.99,1.63-12.07-.13-22.59,1.31-29.46,1.8-8.57,11.92-19.76,11.92-19.76,0,0,3.69-.12,11.69,.75Z" style="fill:#263238;"></path><path d="M363.67,224.77c3.32,5.83,11.21,16.01,11.21,16.01l14.69-7.22s-6.55-14.78-9.31-16.8c-4.44-.94-19.26,3.33-16.59,8.01Z" style="fill:#263238;"></path><path d="M328.93,228.2c.72-2.59,.99-3.19,3.63-6.78l-12.91,4.45,1.16,4.12,8.13-1.8Z" style="opacity:.3;"></path></g><g style="opacity:.3;"><path d="M271.45,164.53l-.03,.29c.24,2.33,2.09,4.4,4.37,4.91,2.28,.52,4.84-.56,6.06-2.56,.39-.63,.65-1.41,.39-2.11,0-.02-.03-.04-.03-.06-1.59-1.2-3.57-1.92-5.71-1.92-1.85,0-3.57,.54-5.04,1.45Z" style="fill:#fff;"></path></g><g><g><path d="M349.32,207.11c11.57,5.03,17.54,.82,22.05-2.95l-1.2,1.97s6.53-1.73,7.05-8.14c.52-6.41,1.05-5.43,3.85-8.21,2.8-2.79,1.69-7.92-1.05-9.04,0,0,4.48-2.82-6.14-10.99-10.62-8.17-24.28-4.53-26.02,2.11-1.73,6.64-10.67,7.74-13.12,3.01-2.44-4.72-5.35-3.08-5.35-3.08,1.78-.07,3.4,1.05,3.97,2.74,.62,1.65,1.73,3.08,3.17,4.1-2.29-.57-4.36-1.77-6-3.47-2.86-2.89-6.17-7.25-1.34-10.04,0,0-4.78-2.31-8.5,3.37-3.72,5.68-1.37,11.94,4.03,17.61,0,0-8.62-6.45-7.04-10.49,0,0-4.98,5.14,3.96,15.97,0,0,9.32,11.99,19.11,14.37,9.79,2.38,8.57,1.16,8.57,1.16Z" style="fill:#263238;"></path><g><path d="M365.71,211.24s-3.64,.97-8.76,3.25c-1.07,.48-2.19,.83-3.34,1.05-3.09,.61-5.77,.69-6.04-.79-.06-.33-.08-.67-.07-1.01,.09-2.32,1.23-5.28,3.38-6.14,2.43-.97,3.78-2.02,4.06-4.24,.17-1.25,.11-2.62-.03-3.98l2.09-1.34,10.52-5.72c-1.84,5.38-5.18,14.69-1.82,18.92Z" style="fill:#ebb376;"></path><path d="M354.87,203.84c2.62-.65,5.74-2.2,6.23-4.9,.2-1.14,.28-2.25,.21-3l-6.31,4.62c.08,1.07,.02,1.75-.14,3.29Z" style="opacity:.2;"></path><path d="M372.44,184.27c-3.25,8.07-4.46,11.54-10.05,14.6-8.41,4.61-17.65-.57-16.88-9.31,.69-7.86,5.89-19.73,15.09-20.77,9.06-1.02,15.1,7.41,11.84,15.47Z" style="fill:#ebb376;"></path><path d="M361.32,183.78c-.28,.76-.95,1.26-1.49,1.11-.55-.15-.77-.9-.49-1.66,.28-.76,.95-1.26,1.49-1.11,.55,.15,.77,.9,.49,1.66Z" style="fill:#263238;"></path><path d="M352.76,181.07c-.27,.74-.93,1.22-1.48,1.06-.55-.15-.77-.87-.5-1.61,.27-.74,.93-1.22,1.48-1.06,.55,.15,.77,.87,.5,1.61Z" style="fill:#263238;"></path><path d="M363.53,181.2c-.11-.02-.21-.08-.27-.18-.92-1.57-2.49-1.58-2.5-1.58-.23,0-.41-.19-.39-.42,.02-.23,.22-.42,.46-.42,.08,0,2.05,.02,3.19,1.97,.11,.19,.04,.45-.17,.58-.1,.06-.21,.08-.31,.06Z" style="fill:#263238;"></path><path d="M351.09,177.01c-.11,0-.21-.05-.28-.13-.15-.17-.12-.43,.06-.59,1.83-1.59,3.71-1.15,3.79-1.13,.22,.05,.35,.28,.28,.51-.07,.22-.31,.36-.54,.31-.07-.02-1.54-.33-3,.93-.09,.08-.21,.12-.32,.11Z" style="fill:#263238;"></path><path d="M352.41,189.81c.36,1.24,.57,3.5,.57,3.5,.21,.02,.42,.04,.62,.04,2.83,.18,4.2-.68,4.86-1.67,.36-.55,.5-1.15,.55-1.64,.06-.57-.02-.99-.02-.99-1.55,.8-4.2,.84-5.62,.8-.59,0-.96-.04-.96-.04Z" style="fill:#263238;"></path><path d="M353.38,189.85l.19,1.03c2.66,.16,4.56-.09,5.44-.84,.06-.57-.02-.99-.02-.99-1.55,.8-4.2,.84-5.62,.8Z" style="fill:#fff;"></path><path d="M353.61,193.35c2.83,.18,4.2-.68,4.86-1.67-.97-.02-2.13,.06-3.18,.43-.8,.28-1.32,.76-1.68,1.25Z" style="fill:#dc5753;"></path><path d="M355.06,181.52s-2.23,2.71-4.28,4.21c-.36,.26-.35,.8,0,1.07,.91,.68,2.21,.7,2.21,.7l2.06-5.98Z" style="fill:#d58745;"></path><path d="M361,182.15l-1.77-1.02s.61,1.73,1.77,1.02Z" style="fill:#263238;"></path><path d="M352.45,179.54l-1.77-1.02s.61,1.73,1.77,1.02Z" style="fill:#263238;"></path></g><path d="M349.04,175.89c8.09,1.48,18.09-3.7,19.88-2.89-2.01,.35-2.26,3.67-2.01,4.8,1.68,7.25-1.82,10.67,2.43,12.85,8.35,4.27,7.3-13.93,2.33-17.83-.39-.31,0,0-.44-.24,2.26-8.23-14.15-6.23-18.34-3.7" style="fill:#263238;"></path><path d="M372.92,191.78c-1.49,1.41-3.4,2-4.97,1.92-2.36-.11-2.43-3.98-1.02-5.96,1.27-1.78,3.82-2.44,5.83-1.37,1.98,1.06,1.87,3.79,.17,5.4Z" style="fill:#ebb376;"></path><path d="M368.06,190.31s-.06,0-.09-.02c-.13-.05-.19-.2-.14-.33,.33-.81,.96-1.51,1.75-1.91,.78-.4,1.72-.5,2.57-.27,.13,.03,.21,.17,.18,.3-.04,.13-.17,.22-.31,.18-.73-.19-1.54-.1-2.22,.24-.68,.34-1.23,.94-1.51,1.65-.04,.1-.13,.16-.23,.16Z" style="opacity:.2;"></path></g><g><path d="M347.46,176.48c1.77-1.6,4.53-1.82,6.98-1.5,2.45,.32,6.13,1,8.88,1.96,2.18,.89,2.67,2.68,2.96,4.74,.29,2.06-.48,4.29-2.22,5.61-1.74,1.33-4.44,1.57-6.27,.37-1.61-1.06-2.7-3.15-4.69-3.12-1.95,.03-3.42,2.23-5.33,1.91-1.65-.28-2.21-2.18-2.28-3.72-.1-2.23,.23-4.68,1.97-6.25Z" style="fill:#113A9A;"></path><path d="M347.93,176.77c1.6-1.34,4.03-1.36,6.24-1.1,2.21,.26,5.46,.89,7.93,1.69,1.96,.74,2.52,2,2.78,3.72,.26,1.72-.44,3.58-2.01,4.7-1.57,1.11-3.12,1.18-4.76,.18-1.45-.88-2.83-3.14-4.62-3.11-1.75,.03-4.01,2.56-5.74,2.29-1.49-.23-1.63-2.36-1.69-3.65-.08-1.86,.3-3.4,1.86-4.72Z" style="fill:#263238;"></path><path d="M370.81,185.82l-5.27-6.92-.64,5.41,2.75,2.65s1.12-1.04,3.16-1.15Z" style="fill:#113A9A;"></path><path d="M355.63,175.87l8.44,8.7s-.63,1.03-1.96,1.67l-9.7-10.7s.13,.01,.35,0c.7-.01,2.89,.3,2.88,.33Z" style="fill:#fff; opacity:.3;"></path><path d="M354.05,182.91l-4.75-6.93s-.33,.11-.76,.37c-.19,.11-.43,.26-.6,.41l4.14,6.5s1.04-.62,1.99-.36Z" style="fill:#fff; opacity:.3;"></path><path d="M365.76,185.15c-.13,.1,.81-2.73,.2-4.5,0,0,1.72,2.93,.7,5.36l-.9-.87Z" style="opacity:.2;"></path></g></g></g></g><g id="freepik--Character_1--inject-2"><g><g><path d="M221.57,355.89c-.08-.31-1.97-15.39-1.97-15.39,0,0,14.65-3.55,14.75-3.14,.1,.41-.79,18.2-.79,18.2l-5.85,4.33-6.15-3.99Z" style="fill:#b97964;"></path><g><path d="M236.08,356.51c.08-1.41-.05-2.59-1.57-2.62l-2.15-.05c-.81,.03-1.37,.58-2.01,1.06-4.8,3.57-6.96-.78-8.86-.71-2.45,.07-.63,7.85-.73,8.27l-2.39,9.17c-.21,.77,.31,2.39,1.13,2.58,.15,.03,.3,.05,.45,.04,4.35-.14,6.4-.2,11.81-.37l16.55-.52c4.51-.14,4.39-5.67,2.52-6-8.41-1.46-11.79-4.09-14.61-6,0,0-.26-2.65-.15-4.83Z" style="fill:#113A9A;"></path><path d="M248.32,373.34l-16.55,.52c-5.41,.17-7.47,.24-11.81,.37-.15,0-.3,0-.45-.04-.56-.13-.97-.92-1.12-1.65v-.69l33.47-1.06c-.4,1.3-1.49,2.48-3.54,2.55Z" style="fill:#fff; opacity:.4;"></path><path d="M240.23,364c-.71,.69-1.29,1.52-1.7,2.42-.08,.18-.06,.41,.13,.51,.16,.09,.43,.06,.51-.13,.2-.43,.43-.84,.7-1.23,.14-.2,.23-.32,.39-.51s.32-.36,.49-.53c.14-.14,.15-.39,0-.53s-.38-.15-.53,0h0Z" style="fill:#263238;"></path><path d="M237.57,362.5c-.65,.66-1.2,1.42-1.61,2.25-.09,.18-.05,.41,.13,.51,.17,.09,.42,.05,.51-.13,.2-.39,.42-.77,.68-1.13,.03-.04,.06-.08,.09-.12l.06-.08s.05-.06,.03-.04,.02-.03,.03-.04l.06-.07s.06-.08,.1-.12c.15-.17,.3-.34,.46-.5,.14-.14,.15-.39,0-.53s-.38-.15-.53,0h0Z" style="fill:#263238;"></path><path d="M235.75,361.13c-.67,.39-1.22,.99-1.53,1.7-.04,.1-.07,.18-.04,.29,.02,.09,.09,.18,.17,.22,.16,.09,.43,.06,.51-.13,.07-.16,.15-.31,.24-.46,.05-.07,.1-.14,.15-.21,.04-.05,0-.02,0,0,0-.02,.03-.04,.04-.05,.03-.04,.06-.07,.09-.1,.11-.13,.23-.24,.36-.35l.05-.04,.03-.02s.01-.01-.03,.02c.02-.03,.07-.06,.1-.07,.07-.05,.15-.1,.23-.15,.17-.1,.24-.34,.13-.51s-.33-.24-.51-.13h0Z" style="fill:#263238;"></path><path d="M235.85,358.19c-.83,.04-1.63,.23-2.39,.58-.18,.08-.24,.36-.13,.51,.12,.19,.32,.22,.51,.13,.1-.05,.1-.05,.21-.09,.09-.03,.18-.07,.27-.1,.17-.06,.34-.1,.51-.15s.34-.07,.52-.1c.05,0,.05,0,.02,0h.06s.09-.02,.14-.02c.09,0,.19-.01,.28-.02,.2,0,.38-.17,.38-.38,0-.2-.17-.38-.38-.38h0Z" style="fill:#263238;"></path><g style="opacity:.3;"><path d="M227.77,359.37c-.02,.81-.28,1.71-.98,2.11-.44,.25-.97,.25-1.47,.26-1.51,0-3.01,0-4.52,.01l-.02-.04c-.31-2.13-1.11-7.33,.76-7.38,1.47-.05,3.1,2.9,6.15,1.93,.01,1.13,.1,2.57,.09,3.12Z"></path></g></g></g><g><path d="M182.31,377.64c-.05-.32-.55-15.51-.55-15.51,0,0,14.91-2.2,14.98-1.78,.06,.42-2.45,18.06-2.45,18.06l-6.22,3.77-5.76-4.54Z" style="fill:#b97964;"></path><g><path d="M196.7,379.58c.2-1.4,.18-2.58-1.32-2.76l-2.13-.25c-.81-.05-1.42,.46-2.09,.87-5.11,3.12-6.86-1.41-8.76-1.52-2.45-.15-1.34,7.76-1.48,8.17l-3.22,8.91c-.28,.74,.09,2.41,.89,2.67,.14,.05,.29,.07,.44,.08,4.34,.26,6.4,.38,11.8,.71l16.53,.99c4.5,.27,4.89-5.24,3.06-5.75-8.24-2.22-11.37-5.15-14-7.31,0,0-.02-2.67,.29-4.82Z" style="fill:#113A9A;"></path><path d="M207.34,397.45l-16.53-.99c-5.4-.32-7.46-.45-11.8-.71-.15,0-.3-.03-.44-.08-.54-.18-.88-1-.96-1.75l.05-.69,33.44,2.01c-.52,1.26-1.71,2.33-3.76,2.21Z" style="fill:#fff; opacity:.4;"></path><path d="M200.12,387.44c-.77,.63-1.42,1.4-1.91,2.26-.1,.17-.05,.42,.13,.51s.41,.05,.51-.13c.12-.21,.24-.41,.38-.6,.03-.05,.06-.09,.1-.14l.06-.08s.06-.08,.04-.05c-.02,.03,.04-.05,.04-.05l.05-.06s.08-.1,.12-.14c.31-.36,.65-.69,1.01-.99,.15-.12,.14-.4,0-.53-.16-.15-.37-.13-.53,0h0Z" style="fill:#263238;"></path><path d="M197.61,385.7c-.71,.6-1.32,1.31-1.8,2.1-.1,.17-.04,.42,.13,.51s.4,.04,.51-.13,.24-.37,.36-.54c.03-.05,.07-.09,.11-.14s-.03,.04,0,0c.02-.02,.04-.05,.05-.07,.07-.09,.14-.17,.21-.26,.29-.33,.6-.64,.94-.93,.15-.13,.14-.4,0-.53-.16-.15-.37-.14-.53,0h0Z" style="fill:#263238;"></path><path d="M195.92,384.16c-.7,.33-1.29,.89-1.66,1.57-.1,.17-.05,.42,.13,.51s.41,.05,.51-.13c.04-.08,.09-.15,.14-.23,.02-.03,.05-.07,.07-.1l.04-.06c.04-.06-.04,.04,0,0,.11-.14,.22-.26,.35-.38,.06-.06,.13-.11,.19-.17,.04-.03,.02-.02,0,0,.02-.01,.04-.03,.06-.04,.03-.02,.07-.05,.1-.07,.15-.1,.3-.19,.46-.26,.18-.08,.24-.35,.13-.51-.12-.18-.32-.22-.51-.13h0Z" style="fill:#263238;"></path><path d="M196.28,381.22c-.79-.04-1.59,.08-2.34,.34-.18,.06-.33,.26-.26,.46,.06,.18,.26,.33,.46,.26,.35-.12,.72-.21,1.08-.27,.03,0,.03,0,0,0h.08s.08-.02,.13-.02c.09,0,.18-.01,.27-.02,.19,0,.38,0,.57,0s.38-.18,.38-.38c0-.21-.16-.37-.38-.38h0Z" style="fill:#263238;"></path><g style="opacity:.3;"><path d="M188.16,381.66c-.09,.81-.43,1.68-1.17,2.01-.46,.21-.99,.17-1.49,.12-1.5-.13-3-.27-4.5-.4l-.02-.04c-.11-2.15-.43-7.4,1.43-7.28,1.47,.09,2.83,3.17,5.95,2.48-.09,1.13-.13,2.57-.2,3.11Z"></path></g></g></g><g><g><path d="M226.22,117.43c5.18-1.16,10.31,2.1,11.47,7.27,1.16,5.18-2.1,10.31-7.27,11.47-5.18,1.16-10.31-2.1-11.47-7.27v-.03c-1.14-5.17,2.11-10.28,7.27-11.44Z" style="fill:#113A9A;"></path><path d="M226.22,117.43c5.18-1.16,10.31,2.1,11.47,7.27,1.16,5.18-2.1,10.31-7.27,11.47-5.18,1.16-10.31-2.1-11.47-7.27v-.03c-1.14-5.17,2.11-10.28,7.27-11.44Z" style="fill:#fff; isolation:isolate; opacity:.5;"></path><path d="M236.92,122.57c-.18,.28-.33-.11-.95,.21-.6,.27-1.25,.42-1.91,.46l-.14,.27c-.13,.28-1.31-.18-1.31-.63s0,0,.91-.27c.91-.27,0,0,.08-.65,.08-.65-.26-.36-.63-.82-.2-.27-.58-.32-.85-.12h0c-.28,.16-.24,.48-.51,.55-.27,.07-.15,.23-.27,.32s-.3,0-.46,0-.35-.13-.44,0c-.09,.13-.07,.16-.09,.23-.1,.01-.2,.01-.3,0-.07,0-.15-.09-.15-.15,0-.04,0-.08,0-.12,.05-.12,.12-.22,.2-.32,.08-.1,.22-.14,.34-.09,.03-.11,0-.23-.09-.3h.37c.09,0,.36-.77,.39-.89,0-.1-.05-.19-.13-.25-.1-.06-.23,0-.36,0s-.4-.36-.64-.33c-.06,.02-.12,.05-.18,.08l-.29,.21s-.09,.05-.13,.09c0,.06,0,.12,0,.19-.01,.06-.05,.1-.1,.12,.22,0-.08,.22-.13,.23-.23,.08-.69-.08-.96-.11-.04,.02-.1,.02-.14,0,0-.03,0-.07,0-.1-.07-.16-.13-.34-.19-.5-.06-.16-.19-.76,.1-.92,.29-.16,.62,0,.71-.3,.01-.04,.03-.07,.06-.09,.08-.07,.18,.09,.16,.21-.03,.18-.03,.38,0,.56,.07,.19,.32,.3,.46,.19-.09-.14,.09-.3,.26-.3s.35,.08,.5,0c.13-.08,.2-.24,.16-.4-.03-.15-.1-.3-.2-.42-.2,.08-.43,.05-.6-.08-.14-.11-.28-.29-.44-.22,.07-.08,.13-.16,.19-.25-.11-.05-.21-.1-.33-.14-.1-.06-.21-.18-.15-.29,.02-.04,.05-.06,.08-.08h0c.62,.02,1.23,.11,1.82,.27-.19,.35-.23,.99,.64,1.31,1.27,.46,0,0,1.17-.63h0c.92,.44,1.76,1.02,2.5,1.73l-.51,.37c-.54,.36,.17,.55,.17,.55h.74c.4,0,.36,0,.39-.08,.46,.52,.86,1.1,1.19,1.72Z" style="isolation:isolate; opacity:.1;"></path><path d="M222.55,123.19s0,.09,0,.14c-.07,.25-.43,.16-.68,.23-.51,.16-.39,1.06-.89,1.3-.25,.11-.54,0-.78,.11-.16,.12-.31,.25-.44,.41-.26,.24-.62,.34-.97,.28,.2-1.81,.93-3.52,2.09-4.92,.09-.02,.19-.02,.28,0,.18,.06,.31,.23,.34,.42,.03,.19,.03,.39,0,.58l.37-.28c.17,.11,.21,.33,.1,.5h0c-.12,.18-.35,.2-.56,.23s-.44,.15-.46,.35,.12,.32,.22,.44,.21,.33,.12,.47l.82-.48s.1-.05,.15-.06c.15,.01,.28,.13,.29,.28Z" style="isolation:isolate; opacity:.2;"></path><path d="M223.14,121.92l-.07,.22c.21,.08,.43,.08,.64,0,.07-.03,.13-.07,.18-.13,.08-.11,.13-.24,.14-.37,.02-.17,.02-.35,0-.53-.02-.18-.13-.33-.28-.42-.16-.09-.36-.03-.46,.13-.07,.15,0,.34-.08,.49-.08,.15-.23,.19-.28,.32-.03,.12,.04,.25,.17,.28,.01,0,.03,0,.04,0Z" style="isolation:isolate; opacity:.2;"></path><path d="M227.21,117.97c-.29,.25-.76-.08-1.11,.08s-.28,.34-.48,.37c-.11,0-.22,0-.33,0-.12,0-.23,.08-.22,.19,.01,.05,.04,.09,.08,.13l.29,.27s.07,.08,.09,.12c.04,.13-.02,.27-.15,.31h-.01c-.13,.04-.26,.04-.39,0-.08,0-.16-.03-.23-.06-.07,0-.12-.15-.07-.22l.08-.08c.08-.07,.11-.18,.09-.28-.01-.11-.11-.2-.22-.2l-.15,.07-.5,.3c-.23,.13-.53,.27-.76,.15-.04,0-.08-.03-.1-.07v-.15c.02-.06,.02-.13,0-.19,.94-.62,1.99-1.06,3.09-1.3,.36-.08,.72-.14,1.09-.18h0c.07,.27,.09,.57-.09,.72Z" style="isolation:isolate; opacity:.2;"></path><path d="M225.24,120.41c-.1-.04-.22,.01-.26,.12,0,.02-.01,.04-.01,.06l.12,.19v-.11c0,.11,.13,.21,.22,.13,.08-.09,.08-.23,0-.33l-.07-.06Z" style="isolation:isolate; opacity:.2;"></path><path d="M229.48,123.17c-.15-.16-.42-.11-.65-.08-.23,.02-.53-.09-.51-.32,.01-.22,.25-.28,.44-.29,.02-.32-.23-.6-.55-.62-.02,0-.04,0-.06,0,.08,.19,.08,.4,0,.58-.07,.18-.28,.26-.46,.19-.01,0-.02-.01-.03-.02-.29-.22,.07-.81-.21-1.04-.15-.07-.33-.07-.48,0-.56,.13-1.17,.33-1.39,.86,0,.06-.47,0-.61,0s-.22,.43-.25,.58c-.03,.08-.03,.17,0,.26,0,.09,.15,.19,.1,.28-.05,.09-.12,.07-.16,.13-.05,.06,.3,.58,.42,.64,.12,.06,.44,0,.67,.11,.16,.12,.24,.33,.2,.53h-.21c.11,.29,.02,.61-.23,.79,.3-.06,.61,.04,.83,.26,0,0,.11,.12,.18,.12,.05,0,.09-.03,.13-.06,.23-.14,.4-.37,.47-.63h.23c0-.13,0-.34-.14-.29-.14,.05,0,0-.08,.07-.08,.07-.3,0-.32-.2,0-.15,.07-.3,.16-.42,.06-.07,.11-.15,.16-.23,.11-.19,.28-.34,.49-.41,.36-.08,.65,.3,.83,.63,.07,.14,.1,.36,0,.39-.11,.02-.16-.06-.22,0-.06,.06,0,.19-.12,.25-.12,.06-.13,0-.19,0s-.13,.27,0,.41c.13,.14,.17-.08,.27-.14s.44,.09,.65,0c.21-.09,.17-.18,.26-.26,.08-.08,.63-.27,.67-.57s-.12-.33-.15-.5c-.03-.18,.08-.77-.14-.99Z" style="isolation:isolate; opacity:.2;"></path><path d="M222.59,125.44c.1,.02,.2,.02,.29,0,.14,0,.6,.13,.41,.39-.19,.26-.48-.29-.72-.15,.14,0,.13,.27,.06,.41-.07,.14-.15,.32-.06,.44,.19-.08,.37,.09,.58,.14,.21,.05,.53-.15,.79-.1v-.3c0-.11,.2-.08,.29-.15,.09-.07,.21-.15,.3-.08,.09,.07,0-.23,0-.34-.09-.08-.17-.17-.24-.27-.06-.11,0-.27,.07-.3s.22,0,.32,0c.08-.05,.12-.13,.12-.22,0-.09,0-.18,0-.27h-.22c.02,.1-.03,.19-.13,.22-.09,.02-.19,.02-.28,0,.04-.27,0-.55-.1-.81h-.29c0,.12-.13,.19-.24,.19-.11-.02-.21-.08-.29-.15-.06-.06-.13-.12-.21-.09-.08,.02-.15,.15-.14,.27,0,.42-.17,.32-.35,.55-.16,.2-.13,.48,.06,.64Z" style="isolation:isolate; opacity:.1;"></path><path d="M222.79,129.48c-.23,.04-.47,0-.69-.09-.09-.06-.21-.13-.32-.07-.09,.06-.14,.17-.12,.28,0,.09,.1,.19,.14,.29,.13,.27,.13,.59,0,.86-.46,.09-.93-.02-1.31-.3-.04-.04-.07-.08-.11-.13-.08-.19,.18-.4,.13-.58-.05-.19-.41-.33-.29-.5,.12-.17,.22-.07,.33-.12,.12-.06,.17-.21,.11-.33h0c-.28-.14-.61-.05-.78,.21-.2,0-.26-.29-.27-.48s-.14-.47-.34-.4c-.07,.03-.12,.1-.13,.18-.15,.44,.21,.86,.54,1.17,.09,.07,.15,.16,.16,.27,0,.12-.07,.25-.19,.22l.41,.46s.05,.1,.06,.15c0,.03,0,.07,0,.11-.11,.15-.22,.31-.32,.47-.39-.73-.67-1.52-.84-2.33-.16-.74-.23-1.5-.22-2.25,.06-.1,.15-.18,.26-.23,.13,0,.28,0,.4-.07,.29-.08,.42-.46,.71-.57,.24-.08,.5,0,.65,.19,.15,.2,.2,.47,.14,.71-.07,.19-.1,.39-.07,.58,.12,.34,.54,.37,.89,.36-.04,.22,.07,.43,.27,.53,.18,.06,.38-.04,.44-.23,0-.02,.01-.04,.01-.07,.22,0,.5,.14,.5,.37-.04,.14-.13,.27-.26,.35-.09,.12-.18,.29-.08,.41,.09,.12,.41,0,.49,.2s-.16,.37-.32,.4Z" style="isolation:isolate; opacity:.1;"></path><path d="M230.4,136.18h-.3c-.06-.19-.04-.39,.06-.56,.13-.19,.36-.32,.47-.53,.05-.14,.11-.28,.19-.41,.2-.32,.67-.29,1.04-.23-.09-.18-.03-.4,.15-.49h0c.19-.07,.38-.1,.58-.09,.19,.02,.39-.04,.54-.16,0-.06,.09-.14,.16-.16h.16l1.05,.13c0-.26-.28-.4-.53-.42-.25-.02-.54,0-.65-.26-.28,.45-.82,.66-1.33,.5-.03,.01-.06,.01-.09,0-.11-.14,.26-.32,.14-.43l-.5-.2c-.07,0-.15-.06-.19-.13-.03-.07,0-.26,.1-.39,.1-.13-.06-.51-.13-.77-.07-.26,0-.63,.29-.63h.17s.12-.19,.14-.29c.07-.32,.39-.5,.65-.69,.08-.06,.15-.13,.22-.21,.25-.24,.4-.56,.42-.91-.23,.14-.42,.33-.57,.55-.19,.21-.47,.39-.71,.26,.05,.34-.15,.66-.48,.77-.33,.08-.67-.1-.79-.42-.06-.09-.06-.21,0-.3,.09-.03,.2-.03,.29,0,.31,.02,.61-.13,.77-.4-.36,0-.7-.17-.91-.47-.18-.32-.09-.73,.22-.93h-.23c.07-.29,.31-.52,.61-.57h.43c.14-.03,.25-.15,.27-.29-.16-.11-.26-.3-.23-.49,.04-.16,.15-.3,.3-.36-.09,0-.16-.07-.17-.15,0-.12,.08-.23,.2-.26,.12-.03,.25-.03,.37,0,.32,.02,.61,.16,.83,.4,.11,.2,.15,.44,.13,.67v.91c-.04,.3,.06,.6,.27,.82,.14,.09,.31,.13,.48,.12,.49,0,.97-.1,1.42-.29,.24-.08,.44-.25,.57-.47,.1-.22,.14-.47,.12-.71,0-.49,.09-1.27-.41-1.58-.15-.09-.33-.09-.48,0-.09,.07-.16,.18-.27,.21s-.34-.06-.48,0c-.14,.06-.13,.15-.2,.24-.05,.1-.16,.15-.27,.12-.1-.06,0-.23,0-.36s-.2-.5-.15-.76c.05-.26,.29-.4,.46-.58,.15-.17,.28-.36,.39-.57,.15-.07,.33,0,.47,.14,.13,.11,.31,.15,.48,.09,.13,.16-.07,.47,.12,.6h.08c.02,.06,.02,.13,0,.2,0,.23,.12,.51,.35,.58h.09s0,0,0-.07c.05-.31-.02-.62-.2-.88-.03-.06-.06-.11-.08-.18-.02-.06-.02-.12,0-.18,.01-.07,.04-.14,.07-.2,0-.04,0-.08,0-.12,.08-.07,.2,0,.29,0,.09-.02,.18-.05,.26-.11,.12-.05,.25-.05,.37,0,.08,.28,.16,.57,.23,.86,1.18,5.13-2,10.25-7.12,11.48Z" style="isolation:isolate; opacity:.2;"></path><path d="M228.98,133.16c-.04,.19-.04,.39,0,.58-.22,.14-.49,.18-.75,.12-.19,.5,.04,1.06,.51,1.3-.16,.13-.37,.17-.56,.11-.18-.08-.35-.19-.49-.33l-1.17-.9c-.19,.07-.07,.36,.12,.46,.19,.09,.41,.1,.5,.28,.09,.18,0,.53,.1,.71,.1,.07,.2,.13,.3,.17,.17,.13,.25,.36,.2,.57v.15c-1.47-.07-2.9-.49-4.18-1.23h0c0-.07,0-.15,0-.22,0-.35,.33-.58,.6-.79,.3-.18,.49-.49,.51-.84-.46,.12-.63,.69-1.02,.93-.1,.06-.21,.12-.33,.15-.19,.1-.38,.22-.55,.35-.95-.64-1.77-1.45-2.42-2.39,.19-.25,.28-.56,.26-.88,.1-.13,.27,.11,.42,.12s.27-.22,.44-.23c.18-.01,.25,.5,.51,.6s.35-.15,.54-.18c.19-.02,.41,.15,.63,.08,.64-.2,.16-.9,.26-1.3,.06-.19,.29-.22,.44-.32,.22-.15,.36-.41,.36-.68,0-.26-.05-.52-.13-.77-.1-.24-.08-.51,.06-.74,.25-.27,.72-.09,1.06-.27,.34-.18,.34-.5,.58-.69,.22-.15,.49-.23,.76-.22,.07-.01,.14-.01,.21,0,.13,.07,.1,.27,.08,.4-.08,.4-.2,.79-.36,1.17,.3,.14,.72,.27,.95,0,.04-.07,.09-.14,.15-.2,.12-.06,.27-.06,.4,0,.1,.23,.22,.46,.34,.67-.6-.04-1.16,.32-1.37,.89-.01,.08-.05,.16-.09,.23-.08,.09-.2,.15-.33,.14-.38-.05-.76-.17-1.1-.36-.37-.12-.9,0-.99,.33,.3-.11,.56,.21,.85,.33,.17,.06,.35,.09,.53,.09,.44,.04,.86,.15,1.26,.33,.3-.12,.5-.4,.53-.72,.29,.4,.74,.64,1.24,.65-.11,.38-.11,.79,0,1.17,.14,.28,.42,.54,.41,.85-.15,.05-.26,.17-.29,.33Z" style="isolation:isolate; opacity:.2;"></path></g><path d="M237.86,127.84c-.51,.89-1.16,1.71-1.98,2.42-3.98,3.5-10.05,3.1-13.55-.88-1.84-2.09-2.59-4.76-2.32-7.32-.34,.58-.62,1.2-.84,1.87-1.63,5.04,1.13,10.46,6.18,12.09,5.04,1.63,10.46-1.13,12.09-6.18,.21-.66,.35-1.33,.42-1.99Z" style="opacity:.2;"></path></g><g><path d="M209.42,159.31c-.13,.4-21.04,28.53-21.04,28.53l-14.96-19.71s-10.66,14.45-10.2,14.56c.46,.12,19.86,29.43,29.37,22.13,9.51-7.31,24.64-38.98,24.64-38.98l-7.81-6.53Z" style="fill:#b97964;"></path><path d="M188.38,187.83s-1.61,3.78-.83,6.99c0,0-1.21-1.44-1.33-4.07-.12-2.63,.86-4.62,.86-4.62l1.29,1.71Z" style="isolation:isolate; opacity:.2;"></path><path d="M209.05,159.86s-.31-7.94,1.02-9.02c1.33-1.08,2.78-1.24,2.78-1.24,0,0,6.8-11.44,8.32-10.25,.82,.64-.39,3.73-3.68,9.09,0,0,3.32-.5,3.09,1.73,0,0,2.54-.18,2.57,2.43,0,0,1.91,1.27,1.36,3.05-.55,1.78-4.34,7.96-7.28,10.18-2.94,2.22-8.22-2.97-8.22-2.97l.03-3Z" style="fill:#b97964;"></path><path d="M213.67,160.15c-.09,0-.17-.05-.22-.13-.07-.12-.02-.27,.1-.34,.83-.45,1.39-1.42,1.47-2.52,.08-1.05-.35-2.77-.79-3.72-.04-.09-.03-.19,.04-.27s.17-.1,.26-.08c1.29,.4,3.58-.12,4.24-1.2,.35-.57,.3-.91-.17-1.32-.21-.18-.97-.19-1.38-.19-.15,0-.29,0-.39-.01-.63-.04-1.46-.13-2.26-.21-.8-.08-1.62-.17-2.25-.21-.14,0-.24-.13-.23-.27,0-.14,.14-.24,.27-.23,.64,.04,1.47,.13,2.27,.21,.79,.08,1.61,.17,2.24,.21,.1,0,.23,0,.37,0,.74,.01,1.38,.04,1.7,.31,.66,.56,.74,1.18,.27,1.96-.7,1.15-2.84,1.74-4.33,1.52,.39,1.03,.72,2.52,.65,3.52-.09,1.27-.76,2.39-1.73,2.92-.04,.02-.08,.03-.12,.03Z" style="opacity:.3;"></path><path d="M221.61,158.72c-.08,0-.17,0-.25-.02-.79-.16-1.19-1.02-1.23-1.76-.02-.37,.03-.74,.13-1.1-.13,.07-.26,.13-.39,.17-.79,.27-1.66,.14-2.23-.35-.65-.56-.8-1.58-.33-2.23,.08-.11,.24-.14,.35-.06,.11,.08,.14,.24,.06,.35-.32,.44-.2,1.16,.25,1.55,.43,.37,1.11,.47,1.74,.26,.35-.12,.69-.34,1-.64,.15-.22,.33-.43,.53-.61,.1-.09,.24-.09,.33,0,.1,.09,.11,.23,.04,.33-.16,.22-.33,.42-.51,.6-.32,.5-.49,1.09-.46,1.69,.03,.56,.32,1.19,.83,1.29,.29,.06,.63-.06,.91-.32,.28-.25,.48-.61,.67-.95,.07-.12,.22-.16,.34-.09,.12,.07,.16,.22,.09,.34-.21,.37-.43,.76-.77,1.07-.33,.3-.73,.47-1.11,.47Z" style="opacity:.3;"></path></g><path d="M125.45,247.95s-1.66,4.1,12.82,4.1,9.75-14.81,9.75-14.81c0,0-20.49-.09-22.57,10.7Z" style="fill:#113A9A;"></path><path d="M125.45,247.95s-1.66,4.1,12.82,4.1,9.75-14.81,9.75-14.81c0,0-20.49-.09-22.57,10.7Z" style="opacity:.4;"></path><g><path d="M177.27,225.13c.11,.54,52.83,42.68,55.44,58.44,2.62,15.76,5.12,65.04,5.12,65.04l-21.12,3.65s-5.22-47.27-7.72-56.05c-2.5-8.79-30.57-27.64-30.57-27.64l-19.73-36.62,18.58-6.81Z" style="fill:#263238;"></path><path d="M175.13,252.96c.29,.48,32.01,44.49,30.75,59.66-1.26,15.17-7.34,61.2-7.34,61.2h-19.24l.38-62.27s-26.47-37.57-36.13-45.7c-9.65-8.13-13.26-25.51-13.26-25.51l35.56-11.38,9.27,24Z" style="fill:#263238;"></path><path d="M191.62,278.18l-14.77-22.75,1.85-13.05,1.76,12.98s11.15,14.08,11.15,22.82Z" style="opacity:.4;"></path></g><g><g id="freepik--freepik--character-2--inject-5--inject-2"><path d="M166.36,162.22c8.15,6.3,17.45,16.94,17.45,16.94l-12.89,15.4s-18.22-14.87-20-23.03c-1.96-8.95,10.15-13.4,15.44-9.32Z" style="fill:#113A9A;"></path><path d="M158.17,181.97c3.95,4.51,8.22,8.72,12.78,12.6,.12-5.14-4.84-14.46-9.56-18.79-2.31-2.16-3.13,1.58-3.22,6.18Z" style="isolation:isolate; opacity:.2;"></path><path d="M152.08,158.66c-6.58-.72-13.2-1.05-19.83-1-7.77,1.16-17.22,3.4-17.22,3.4,5.2,34.04-1.64,61.88,10.42,87.66,2.87-5.93,11.01-9.35,21.86-10.44,2.01-.2,4.05-.2,6.07-.05,15.58,1.14,23.73-2.31,30.86-7.52-20.89-34.92-18.88-69-18.88-69-4.34-1.36-8.79-2.38-13.29-3.05Z" style="fill:#113A9A;"></path></g><g><path d="M108.63,170.31c-.27,1.28-15.55,37.3-14.81,44.75,1.29,12.98,11.91,35.39,11.91,35.39l6.62-3.84s-4.94-25.42-4.28-30.22c.66-4.79,13.75-37.65,13.75-37.65l-13.19-8.43Z" style="fill:#b97964;"></path><path d="M111.96,244.65s3.69,.35,5.71,2.81c2.03,2.45,4.25,3.88,5.64,5.81,1.39,1.93-1.62,1.15-3.15,.41-1.53-.74-3.28-1.57-3.58-.31-.3,1.26,2.71,12.22,2.09,13.91-.61,1.69-1.63,.04-1.63,.04,0,0,.66,2.68-.28,3.19-.25,.13-1.04,.02-1.53-1.16-1.09-2.66-3.11-8.34-3.11-8.34,.12,.32,2.13,7.5,2.3,8.61,.22,1.45-.39,2.22-1.2,2.28-1.16,.09-3.94-8.73-4.31-9.03,0,0,1.77,5.03,.78,6.16-.99,1.12-2.26-1.99-2.89-4.93-.58-2.7-2.39-7.87-2.72-10.66-.41-3.44,.06-5.81,2.73-7.37,2.67-1.56,5.15-1.42,5.15-1.42Z" style="fill:#b97964;"></path></g><path d="M125.44,176.61c-2.59,6.99-4.72,16.53-8.08,23.22l-18.56-13.04s9.52-23.82,16.47-25.69c9.21-2.18,13.85,4.77,10.17,15.51Z" style="fill:#113A9A;"></path><g style="isolation:isolate; opacity:.2;"><path d="M157.12,197.96c-1.17,9.46-6.15,20.37-17.88,24.81,6.03,.26,12.11-2.68,15.64-7.58,3.53-4.9,4.4-11.59,2.25-17.23Z"></path></g><path d="M117.36,199.83l.62-19.57s3.44,11.65,2.03,17.7c-1.41,6.05-2.65,8.02-2.65,8.02v-6.15Z" style="isolation:isolate; opacity:.2;"></path></g><g style="opacity:.3;"><path d="M228.6,117.18l-.19,.22c-1.1,2.06-.74,4.81,.87,6.52,1.6,1.71,4.32,2.24,6.45,1.27,.67-.31,1.33-.81,1.51-1.53,0-.02,0-.05,0-.07-.65-1.89-1.88-3.59-3.66-4.79-1.53-1.04-3.26-1.56-4.99-1.62Z" style="fill:#fff;"></path></g><g><g><path d="M153.16,115.02s7.11,4.92,4.11,17.78c-3,12.86-17.62-13.54-4.11-17.78Z" style="fill:#263238;"></path><path d="M133.67,157.76s.86-6.15-2.74-16.8c0-.01,.56-.29,.56-.3-.5-1.49-1.02-2.86-1.5-4.05-.01-.03-.01-.05-.01-.05l15.16,8.48c-.2,3.47,1.33,10.08,2.19,12.86,0,0,2.09,5.02-4.69,5.54-4.95,.38-8.96-5.68-8.96-5.68Z" style="fill:#b97964;"></path><path d="M145.59,149.88l-8.58-1.55c.89,2.61,3.36,5.64,9.28,5.64,0,0-.72-2.93-.7-4.09Z" style="opacity:.2;"></path><path d="M129.54,129.4c1.4,9.31,2.01,14.6,7.17,18.94,7.76,6.54,18.7,1.35,20.11-8.22,1.27-8.62-1.24-22.4-10.74-25.23-9.37-2.79-17.94,5.2-16.53,14.51Z" style="fill:#b97964;"></path><g><path d="M149.85,140.33c-.47,1.19-.88,3.39-.88,3.39-.21,0-.41,0-.62-.01-2.8-.08-4.06-1.05-4.62-2.09-.3-.57-.39-1.17-.39-1.66-.01-.57,.11-.97,.11-.97,1.46,.93,4.05,1.21,5.45,1.3,.58,.04,.95,.04,.95,.04Z" style="fill:#263238;"></path><path d="M148.9,140.28l-.28,.99c-2.63-.09-4.47-.5-5.27-1.32-.01-.57,.11-.97,.11-.97,1.46,.93,4.05,1.21,5.45,1.3Z" style="fill:#fff;"></path><path d="M148.25,143.7c-2.74-.08-3.98-1.02-4.52-2.03,.93,.06,2.05,.24,3.02,.69,.75,.34,1.21,.84,1.51,1.34Z" style="fill:#de5753;"></path></g><path d="M127.36,118.24c.83-5.27,13.76-6.47,17.6-4.16,.57,.35-6.75,4.87-6.3,4.66l-3.5,1.57c-.57-.07-1.6,.67-2.01,2.45,0,0,1.68,14.32-2.02,18.84-3.41-1.31-4.1-6.98-5.43-10.28-1.98-4.91-4.49-12.14,1.66-13.08Z" style="fill:#263238;"></path><path d="M142.97,131.79c.08,.96,.66,1.69,1.29,1.62,.63-.06,1.07-.89,.98-1.85-.08-.96-.66-1.69-1.29-1.62-.63,.06-1.07,.89-.98,1.85Z" style="fill:#263238;"></path><path d="M152.26,131.16c.08,.96,.66,1.69,1.29,1.62,.63-.06,1.07-.89,.98-1.85-.08-.96-.66-1.69-1.29-1.62-.63,.06-1.07,.89-.98,1.85Z" style="fill:#263238;"></path><path d="M149.5,130.01s2.71,3.53,4.12,5.62c.31,.46,.13,1.1-.38,1.34-1.23,.58-2.72,.36-2.72,.36l-1.02-7.32Z" style="fill:#a24e3f;"></path><path d="M140.45,126.61c.15,.05,.32,.01,.44-.1,1.47-1.38,3.09-1.01,3.11-1,.24,.06,.49-.09,.55-.33,.06-.24-.09-.48-.33-.54-.09-.02-2.11-.48-3.94,1.22-.18,.17-.19,.45-.02,.63,.05,.06,.12,.1,.19,.12Z" style="fill:#263238;"></path><g><path d="M131.72,137.39c4.6,2.7,3.57-2.12,3.25-2.61-1.41-2.16-.13-5.12,1.47-9.29,.71-1.86,.23-4.9,.23-4.9,0,0-5.68-1.15-9.09-.33-3.52,.85-3.67,3.68-3.67,3.68,.68,8.9,4.11,11.28,7.81,13.45Z" style="fill:#263238;"></path><path d="M126.9,125.33s-4.15-5.68,2.95-11.05c7.1-5.37,18.38-5.89,24.76-3.58,6.37,2.31,1.65,7.63-5.17,9.88-3.73,1.23-5.28,.58-5.28,.58,0,0,1.93,.27,4.7-2.26,0,0-9.25-.15-10.8,5.45-1.55,5.6-11.16,.97-11.16,.97Z" style="fill:#263238;"></path></g><g><path d="M126.53,137.61c.96,2.35,2.92,4.02,4.86,4.77,2.92,1.14,3.69-2.01,3.16-4.93-.47-2.63-1.53-5.8-4.6-5.69-3.02,.11-4.52,3.17-3.42,5.85Z" style="fill:#b97964;"></path><path d="M132.97,137.43c-.12,0-.22-.08-.24-.2-.15-.76-.51-1.46-1.02-2.04-.33-.37-.87-.84-1.55-.95-.61-.1-1.24,.17-1.49,.64-.07,.12-.22,.16-.34,.1-.12-.07-.16-.22-.1-.34,.36-.65,1.19-1.01,2.01-.89,.83,.13,1.47,.68,1.85,1.11,.57,.65,.96,1.43,1.13,2.27,.03,.14-.06,.27-.2,.29-.02,0-.03,0-.05,0Z" style="opacity:.2;"></path></g><path d="M156.39,125.86c.08-.03,.16-.07,.22-.15,.16-.19,.13-.48-.06-.64-1.92-1.58-3.89-.95-3.98-.94-.24,.08-.37,.33-.29,.57,.07,.24,.32,.37,.56,.29,.08-.03,1.61-.49,3.15,.78,.12,.1,.28,.12,.42,.08Z" style="fill:#263238;"></path></g><g><path d="M158.51,122.97c-2.24-1.92-5.65-2.11-8.66-1.63-3.01,.47-7.53,1.43-10.89,2.71-2.66,1.16-3.21,3.39-3.51,5.94-.3,2.55,.73,5.27,2.91,6.86,2.19,1.58,5.53,1.8,7.75,.26,1.95-1.36,3.23-3.97,5.68-4,2.4-.02,4.29,2.65,6.64,2.19,2.03-.4,2.66-2.75,2.7-4.66,.05-2.76-.43-5.77-2.62-7.65Z" style="fill:#113A9A;"></path><path d="M157.94,123.38c-2.02-1.6-5.02-1.55-7.73-1.16-2.71,.4-6.7,1.27-9.73,2.34-2.4,.97-3.05,2.55-3.31,4.68-.27,2.13,.65,4.41,2.62,5.73,1.97,1.32,3.88,1.36,5.88,.07,1.76-1.14,3.39-3.96,5.6-3.98,2.17-.02,5.03,3.02,7.15,2.64,1.83-.33,1.94-2.96,1.97-4.56,.04-2.3-.47-4.19-2.45-5.76Z" style="fill:#263238;"></path><path d="M130.44,131.75l6.8-5.87-1.03,5.8-2.66,2.47s-.59-2.32-3.11-2.39Z" style="fill:#113A9A;"></path><path d="M148.41,122.54l-10.07,10.87s.55,1.55,2.45,2.05l11.6-13.46s-3.27,.14-3.98,.53Z" style="fill:#fff; opacity:.3;"></path><path d="M150.58,131.15l5.64-8.7s.86,.1,1.71,.92l-4.93,8.11s-1.18-.71-2.43-.34Z" style="fill:#fff; opacity:.3;"></path><path d="M135.55,132.3c.16,.12-.41-1.37,.28-3.56,0,0-1.66,3.19-1.34,4.55l1.06-.99Z" style="opacity:.2;"></path></g></g></g></g></svg>
